<svg xmlns="http://www.w3.org/2000/svg" width="16" height="20.733" viewBox="0 0 16 20.733">
  <g id="Credential_Issuance" transform="translate(-0.149 -0.061)">
    <path id="Path_35877" data-name="Path 35877" d="M15.039,7.368a1.06,1.06,0,0,1-.5-.908c0-.2.1-.3.1-.5a2.608,2.608,0,0,0-.908-3.533,2.774,2.774,0,0,0-2.019-.2A.94.94,0,0,1,10.5,1.614,2.563,2.563,0,0,0,9.184.2,2.817,2.817,0,0,0,7.165.3,2.757,2.757,0,0,0,5.752,1.715a.94.94,0,0,1-1.211.606,2.614,2.614,0,0,0-3.23,1.716,2.774,2.774,0,0,0,.2,2.019,1.111,1.111,0,0,1-.3,1.413A2.555,2.555,0,0,0,.2,10.093a2.469,2.469,0,0,0,2.12,1.918,1,1,0,0,1,.808,1.11v.5h0L1.21,17.967a.737.737,0,0,0,.4,1.009.458.458,0,0,0,.5,0l2.019-.606h0l.908,2.019a.7.7,0,0,0,1.009.3.788.788,0,0,0,.4-.4l1.615-3.533L9.79,20.389a.676.676,0,0,0,.707.4h0a.85.85,0,0,0,.707-.4l.908-1.918h0l2.019.5a.676.676,0,0,0,.808-.3.762.762,0,0,0,.1-.808L13.02,13.727h0v-.606a1.082,1.082,0,0,1,.908-1.11,2.469,2.469,0,0,0,2.12-1.918,1.28,1.28,0,0,0,.1-.606A2.633,2.633,0,0,0,15.039,7.368ZM5.752,18.27l-.5-1.009a.676.676,0,0,0-.707-.4h-.2l-1.11.3.808-1.817h0c.1.1.3.2.4.3a2.828,2.828,0,0,0,2.221,0l.1-.1Zm6.157-1.514a.815.815,0,0,0-.908.4l-.5,1.009L9.184,15.443l.1.1a2.682,2.682,0,0,0,2.322.1c.1-.1.3-.1.4-.2h.1l.808,1.716Zm2.725-6.965a1.1,1.1,0,0,1-.808.808,2.548,2.548,0,0,0-2.12,2.725,1.1,1.1,0,0,1-1.009,1.11h-.1a1.09,1.09,0,0,1-.707-.3,2.5,2.5,0,0,0-3.432,0,.916.916,0,0,1-.707.3,1.1,1.1,0,0,1-.5-.1,1.11,1.11,0,0,1-.606-1.009,2.4,2.4,0,0,0-.5-1.817A2.623,2.623,0,0,0,2.522,10.6a1.1,1.1,0,0,1-.808-.808.911.911,0,0,1,.4-1.11A2.547,2.547,0,0,0,3.128,7.166a2.8,2.8,0,0,0-.3-1.817,1.274,1.274,0,0,1,.1-1.211,1.246,1.246,0,0,1,.808-.4h.3a2.774,2.774,0,0,0,1.817-.1A3.281,3.281,0,0,0,7.165,2.321a1.1,1.1,0,0,1,1.009-.707.884.884,0,0,1,.908.707A2.117,2.117,0,0,0,10.4,3.633a2.285,2.285,0,0,0,1.817.1,1.139,1.139,0,0,1,.808.1,1.034,1.034,0,0,1,.5.606,1.073,1.073,0,0,1-.1.808,2.707,2.707,0,0,0,.808,3.432A1.121,1.121,0,0,1,14.635,9.791Z" transform="translate(0 0)" fill="#121e2a"/>
    <path id="Path_35878" data-name="Path 35878" d="M8.1,4.4A3.864,3.864,0,0,0,5.4,5.5,3.693,3.693,0,0,0,4.3,8.2a3.631,3.631,0,0,0,1.1,2.6,3.864,3.864,0,0,0,2.7,1.1h0a3.8,3.8,0,0,0,3.8-3.8A3.916,3.916,0,0,0,8.1,4.4Zm0,6.3a2.5,2.5,0,1,1,2.5-2.5A2.476,2.476,0,0,1,8.1,10.7Z" transform="translate(0.075 0.064)" fill="#121e2a"/>
    <path id="Path_35879" data-name="Path 35879" d="M9.6,7.8a.758.758,0,0,1-.2.4L7.8,9.3a.367.367,0,0,1-.3.1H7.4A.758.758,0,0,1,7,9.2l-.4-.7a.619.619,0,0,1,.1-.8h0c.1,0,.3-.1.4-.1s.3.1.3.2l.2.2,1.1-.8c.2,0,.3-.1.5,0a.758.758,0,0,1,.4.2C9.6,7.5,9.7,7.6,9.6,7.8Z" transform="translate(0.074 0.075)" fill="#121e2a"/>
  </g>
</svg>
