<svg xmlns="http://www.w3.org/2000/svg" width="584.414" height="173.161" viewBox="0 0 584.414 173.161">
  <g id="apple-app-store" transform="translate(15622.139 42.638)">
    <path id="Path_18168" data-name="Path 18168" d="M580.249,152.425a16.587,16.587,0,0,1-16.607,16.585H20.19A16.609,16.609,0,0,1,3.562,152.425V20.167A16.63,16.63,0,0,1,20.19,3.561H563.638a16.6,16.6,0,0,1,16.606,16.606l0,132.258Z" transform="translate(-15621.846 -42.345)" fill="#fff"/>
    <path id="Path_18169" data-name="Path 18169" d="M563.936,173.161H20.483A20.484,20.484,0,0,1,0,152.723V20.465A20.5,20.5,0,0,1,20.483,0H563.932a20.506,20.506,0,0,1,20.483,20.465V152.718a20.482,20.482,0,0,1-20.479,20.443Z" transform="translate(-15622.139 -42.638)" fill="none"/>
    <path id="Path_18170" data-name="Path 18170" d="M580.249,152.425a16.587,16.587,0,0,1-16.607,16.585H20.19A16.609,16.609,0,0,1,3.562,152.425V20.167A16.63,16.63,0,0,1,20.19,3.561H563.638a16.6,16.6,0,0,1,16.606,16.606l0,132.258Z" transform="translate(-15621.846 -42.345)" fill="#fff"/>
    <path id="Path_18171" data-name="Path 18171" d="M126.284,83.623c-.126-13.956,11.43-20.746,11.959-21.062A25.719,25.719,0,0,0,117.99,51.614c-8.52-.9-16.784,5.1-21.124,5.1-4.427,0-11.11-5.01-18.313-4.863a26.966,26.966,0,0,0-22.7,13.839c-9.815,16.987-2.495,41.951,6.909,55.682,4.7,6.729,10.2,14.233,17.395,13.969,7.038-.286,9.668-4.482,18.161-4.482,8.416,0,10.885,4.482,18.222,4.313,7.554-.117,12.31-6.755,16.849-13.541a55.5,55.5,0,0,0,7.706-15.688c-.173-.061-14.666-5.595-14.813-22.318Zm-13.86-41.042c3.786-4.733,6.376-11.172,5.657-17.706-5.479.242-12.331,3.789-16.277,8.418-3.491,4.079-6.61,10.765-5.8,17.052,6.155.459,12.474-3.1,16.425-7.764Z" transform="translate(-15617.928 -40.592)" fill="#636363"/>
    <g id="Group_5582" data-name="Group 5582" transform="translate(-15438.358 35.302)">
      <path id="Path_18145" data-name="Path 18145" d="M218.475,130.5h-9.837l-5.388-16.927H184.521L179.388,130.5h-9.577l18.56-57.627h11.461L218.475,130.5Zm-16.849-24.028L196.753,91.42q-.773-2.306-2.906-10.856h-.173q-.858,3.676-2.737,10.856l-4.791,15.048Zm64.485,2.741q0,10.6-5.761,16.754a16.892,16.892,0,0,1-12.812,5.473q-8.258,0-11.868-5.893v21.8h-9.234V102.6q0-6.658-.342-13.658h8.121l.515,6.586h.173q4.619-7.444,14.025-7.444A15.417,15.417,0,0,1,261.2,93.9Q266.1,99.723,266.111,109.208Zm-9.408.338a17.127,17.127,0,0,0-2.737-10.007,9.462,9.462,0,0,0-8.039-4.1,9.6,9.6,0,0,0-6.2,2.265,10.5,10.5,0,0,0-3.634,5.945,12.053,12.053,0,0,0-.429,2.81v6.933a11.115,11.115,0,0,0,2.781,7.656,9.232,9.232,0,0,0,7.225,3.122,9.465,9.465,0,0,0,8.121-4.018Q256.7,116.13,256.7,109.546Zm57.213-.338q0,10.6-5.761,16.754a16.9,16.9,0,0,1-12.817,5.473q-8.258,0-11.868-5.893v21.8h-9.234V102.6q0-6.658-.342-13.658h8.121l.515,6.586h.173q4.613-7.444,14.025-7.444A15.444,15.444,0,0,1,309,93.9q4.9,5.826,4.912,15.312Zm-9.412.338a17.128,17.128,0,0,0-2.742-10.007,9.447,9.447,0,0,0-8.03-4.1,9.644,9.644,0,0,0-6.207,2.265,10.5,10.5,0,0,0-3.63,5.945,12.331,12.331,0,0,0-.433,2.81v6.933a11.153,11.153,0,0,0,2.776,7.656,9.252,9.252,0,0,0,7.233,3.122,9.455,9.455,0,0,0,8.121-4.018Q304.5,116.13,304.5,109.546Zm62.861,4.785a15.391,15.391,0,0,1-5.124,11.973q-5.626,5.04-15.7,5.045-9.3,0-14.926-3.59l2.135-7.695a25.7,25.7,0,0,0,13.341,3.594q5.224,0,8.121-2.351a7.68,7.68,0,0,0,2.915-6.279,8.046,8.046,0,0,0-2.4-5.9c-1.6-1.594-4.24-3.079-7.952-4.443q-15.138-5.644-15.142-16.507a14.573,14.573,0,0,1,5.345-11.627q5.341-4.534,14.155-4.534,7.868,0,13.085,2.737L362.9,82.278a22.883,22.883,0,0,0-11.075-2.65c-3.257,0-5.813.8-7.641,2.395a6.852,6.852,0,0,0-2.317,5.222,7.057,7.057,0,0,0,2.655,5.642q2.3,2.046,8.377,4.443,7.446,3,10.945,7.006a14.6,14.6,0,0,1,3.521,9.994Zm30.61-18.46H387.8v20.175q0,7.7,5.388,7.69a16.226,16.226,0,0,0,4.1-.429l.256,7.011a20.928,20.928,0,0,1-7.181,1.022q-5.471,0-8.554-3.339t-3.08-11.2V95.854h-6.064V88.925h6.064V81.317l9.07-2.737V88.925h10.179v6.946Zm45.835,13.506q0,9.581-5.475,15.732-5.724,6.333-15.22,6.326-9.161,0-14.584-6.062t-5.431-15.3q0-9.659,5.6-15.814T423.8,88.1q9.148,0,14.7,6.071,5.315,5.885,5.306,15.208Zm-9.572.212a18.6,18.6,0,0,0-2.473-9.8,9.141,9.141,0,0,0-8.3-4.949A9.274,9.274,0,0,0,415,99.786a18.91,18.91,0,0,0-2.478,9.977A18.548,18.548,0,0,0,415,119.57a9.323,9.323,0,0,0,8.39,4.949q5.3,0,8.3-5.032a18.677,18.677,0,0,0,2.551-9.9Zm39.6-12.527a16.075,16.075,0,0,0-2.911-.255,8.716,8.716,0,0,0-7.528,3.681,13.86,13.86,0,0,0-2.3,8.206v21.8h-9.234V102.029q.012-6.543-.269-13.082h8.043l.338,7.95h.256a14.254,14.254,0,0,1,4.617-6.586,11.168,11.168,0,0,1,6.675-2.226,14.83,14.83,0,0,1,2.309.169Zm41.3,10.691a21.645,21.645,0,0,1-.338,4.187H487.1q.156,6.158,4.019,9.414a13.747,13.747,0,0,0,9.061,2.9,30.647,30.647,0,0,0,11.21-1.962l1.447,6.4a34.663,34.663,0,0,1-13.934,2.568q-9.668,0-15.186-5.681t-5.514-15.26q0-9.392,5.137-15.641,5.38-6.664,14.532-6.664,8.985,0,13.6,6.664a22.423,22.423,0,0,1,3.664,13.069Zm-8.806-2.395a12.5,12.5,0,0,0-1.793-7.1,8.064,8.064,0,0,0-7.355-3.854,8.755,8.755,0,0,0-7.35,3.763,13.789,13.789,0,0,0-2.733,7.18l19.231.009Z" transform="translate(-169.812 -72.016)" fill="#636363"/>
    </g>
    <g id="Group_5581" data-name="Group 5581" transform="translate(-15432.953 -14.262)">
      <path id="Path_18146" data-name="Path 18146" d="M181.446,56.262a58.98,58.98,0,0,1-6.64-.338V28.064a50.283,50.283,0,0,1,7.818-.589c10.59,0,15.467,5.209,15.467,13.7C198.092,50.971,192.331,56.262,181.446,56.262ZM183,31.047a18.531,18.531,0,0,0-3.656.294V52.521a23.973,23.973,0,0,0,3.067.126c6.939,0,10.889-3.949,10.889-11.345C193.3,34.706,189.724,31.047,183,31.047Zm30.294,25.427c-5.969,0-9.837-4.456-9.837-10.505,0-6.3,3.95-10.8,10.174-10.8,5.882,0,9.837,4.244,9.837,10.466C223.465,52.019,219.389,56.474,213.291,56.474Zm.173-17.988c-3.279,0-5.38,3.066-5.38,7.353,0,4.2,2.144,7.27,5.336,7.27s5.336-3.278,5.336-7.357c0-4.157-2.1-7.266-5.293-7.266Zm44.037-2.9-6.389,20.421H246.95L244.3,47.143a67.226,67.226,0,0,1-1.642-6.595h-.087a44.2,44.2,0,0,1-1.637,6.595l-2.815,8.868h-4.206L227.9,35.59h4.665l2.313,9.708q.819,3.469,1.386,6.556h.087c.334-1.719.879-3.867,1.681-6.513l2.9-9.747h3.7l2.776,9.539c.671,2.312,1.217,4.581,1.642,6.725h.121a58.773,58.773,0,0,1,1.386-6.725l2.482-9.539,4.457,0ZM281.02,56.011h-4.539V44.285c0-3.611-1.386-5.421-4.119-5.421a4.714,4.714,0,0,0-4.539,5V56.011h-4.539V41.427c0-1.806-.043-3.741-.169-5.841h3.993l.212,3.152h.126a7.338,7.338,0,0,1,6.475-3.568c4.288,0,7.1,3.278,7.1,8.613l0,12.229Zm12.518,0h-4.544V26.219h4.544Zm16.55.463c-5.964,0-9.837-4.456-9.837-10.505,0-6.3,3.95-10.8,10.17-10.8,5.886,0,9.836,4.244,9.836,10.466C320.262,52.019,316.182,56.474,310.088,56.474Zm.169-17.988c-3.279,0-5.38,3.066-5.38,7.353,0,4.2,2.148,7.27,5.332,7.27s5.336-3.278,5.336-7.357c0-4.157-2.092-7.266-5.289-7.266Zm27.9,17.524-.329-2.351H337.7a6.974,6.974,0,0,1-5.973,2.815,5.938,5.938,0,0,1-6.259-6.01c0-5.04,4.37-7.647,11.937-7.647V42.44c0-2.689-1.425-4.036-4.24-4.036a9.561,9.561,0,0,0-5.336,1.516l-.923-2.984a13.059,13.059,0,0,1,7.013-1.767c5.336,0,8.03,2.815,8.03,8.448V51.14a30.836,30.836,0,0,0,.295,4.876l-4.093,0Zm-.624-10.172c-5.042,0-7.571,1.221-7.571,4.118a2.894,2.894,0,0,0,3.114,3.191,4.346,4.346,0,0,0,4.457-4.157ZM364,56.011l-.212-3.278h-.126a6.848,6.848,0,0,1-6.558,3.741c-4.925,0-8.572-4.33-8.572-10.423,0-6.387,3.781-10.886,8.944-10.886,2.733,0,4.669.922,5.761,2.776h.091V26.219h4.544V50.507c0,1.975.048,3.824.169,5.5H364Zm-.671-12.016c0-2.858-1.893-5.3-4.782-5.3-3.365,0-5.423,2.984-5.423,7.184,0,4.118,2.135,6.937,5.332,6.937,2.854,0,4.873-2.481,4.873-5.421v-3.4Zm33.351,12.48c-5.964,0-9.832-4.456-9.832-10.505,0-6.3,3.95-10.8,10.17-10.8,5.886,0,9.837,4.244,9.837,10.466,0,6.383-4.072,10.839-10.174,10.839Zm.169-17.988c-3.275,0-5.375,3.066-5.375,7.353,0,4.2,2.144,7.27,5.332,7.27s5.336-3.278,5.336-7.357C402.147,41.6,400.046,38.487,396.845,38.487Zm34.417,17.524h-4.544V44.285c0-3.611-1.386-5.421-4.119-5.421a4.71,4.71,0,0,0-4.535,5V56.011h-4.544V41.427c0-1.806-.043-3.741-.169-5.841h3.994l.212,3.152h.126a7.335,7.335,0,0,1,6.471-3.572c4.288,0,7.108,3.278,7.108,8.613ZM461.8,38.993h-4.994V48.91c0,2.525.875,3.785,2.642,3.785a8.942,8.942,0,0,0,2.014-.212l.126,3.447a10.057,10.057,0,0,1-3.521.507c-3.578,0-5.717-1.975-5.717-7.145v-10.3h-2.98v-3.4h2.98V31.848l4.457-1.347v5.084H461.8Zm24.03,17.018H481.3V44.372c0-3.655-1.382-5.5-4.119-5.5a4.451,4.451,0,0,0-4.544,4.833V56.011H468.1V26.219h4.535V38.487h.091a6.887,6.887,0,0,1,6.142-3.321c4.323,0,6.965,3.36,6.965,8.7V56.011Zm24.62-9.119H496.831c.087,3.867,2.646,6.049,6.436,6.049a15.344,15.344,0,0,0,5.505-.966l.706,3.152a17.055,17.055,0,0,1-6.852,1.26c-6.389,0-10.17-4.036-10.17-10.293s3.872-10.968,9.659-10.968c5.219,0,8.494,3.867,8.494,9.708a8.745,8.745,0,0,1-.156,2.057Zm-4.162-3.235c0-3.152-1.59-5.378-4.492-5.378-2.607,0-4.669,2.269-4.964,5.378Z" transform="translate(-174.806 -26.219)" fill="#636363"/>
    </g>
  </g>
</svg>
