<svg xmlns="http://www.w3.org/2000/svg" xmlns:xlink="http://www.w3.org/1999/xlink" width="362.157" height="361.324" viewBox="0 0 362.157 361.324">
  <defs>
    <clipPath id="clip-path">
      <path id="Path_35770" data-name="Path 35770" d="M235.07,0c40.489.018,77.548,34.446,95.886,59.733,47.021,64.838,41.512,174.208-25.074,240.768C255.058,351.3,162.2,383.619,86.063,339.388,19.993,301-16.748,212.869,7.5,161.58c16.273-34.419,46.409-23.474,116.141-78.029C185.143,35.435,190.069,4.727,227.007.46A69.91,69.91,0,0,1,235.025,0Z" transform="translate(0)" fill="none"/>
    </clipPath>
  </defs>
  <g id="Group_66957" data-name="Group 66957" transform="translate(-4.974)">
    <g id="Group_66954" data-name="Group 66954" transform="translate(5.336)">
      <g id="Group_66953" data-name="Group 66953" clip-path="url(#clip-path)">
        <path id="Path_35759" data-name="Path 35759" d="M1266.832,1086.667a8.445,8.445,0,0,0,7.135-3.9l41.6-65.3a8.453,8.453,0,0,0-2.585-11.657L1185.25,924.445a.434.434,0,0,0-.667.366V1035.6a.434.434,0,0,0,.2.366l77.525,49.385a8.4,8.4,0,0,0,4.523,1.32M1185.451,925.6l127.061,80.941A7.584,7.584,0,0,1,1314.83,1017l-41.6,65.3a7.584,7.584,0,0,1-10.46,2.319l-77.325-49.258Z" transform="translate(-1188.977 -741.863)" fill="#fff"/>
        <path id="Path_35760" data-name="Path 35760" d="M1298.895,1226.089a.434.434,0,0,0,.234-.8q-9.669-6.171-19.359-12.389c-15.384-9.858-31.291-20.052-47.017-29.894a.434.434,0,0,0-.46.735c15.722,9.839,31.628,20.032,47.009,29.889q9.692,6.21,19.36,12.39a.435.435,0,0,0,.233.068" transform="translate(-1180.804 -949.374)" fill="#fff"/>
        <path id="Path_35761" data-name="Path 35761" d="M1230.206,1344.072a2.054,2.054,0,1,0,2.835-.629,2.054,2.054,0,0,0-2.835.629" transform="translate(-1115.032 -1077.929)" fill="#fff"/>
        <path id="Path_35762" data-name="Path 35762" d="M1265.3,1321.719a2.054,2.054,0,1,0,2.835-.629,2.054,2.054,0,0,0-2.835.629" transform="translate(-1157.051 -1059.989)" fill="#fff"/>
        <path id="Path_35763" data-name="Path 35763" d="M1300.386,1299.367a2.054,2.054,0,1,0,2.835-.629,2.053,2.053,0,0,0-2.835.629" transform="translate(-1199.068 -1042.05)" fill="#fff"/>
        <path id="Path_35764" data-name="Path 35764" d="M1462.215,1158.331a.433.433,0,0,0,.219-.808c-4.943-2.878-9.68-6.01-14.26-9.038-3.905-2.582-7.943-5.253-12.045-7.719a.434.434,0,1,0-.447.743c4.086,2.457,8.117,5.122,12.014,7.7,4.591,3.036,9.337,6.174,14.3,9.064a.428.428,0,0,0,.218.059" transform="translate(-1384.281 -915.477)" fill="#fff"/>
        <path id="Path_35765" data-name="Path 35765" d="M1347.131,1266.214a.434.434,0,0,0,.234-.8l-8.6-5.48a.433.433,0,1,0-.466.731l8.6,5.48a.433.433,0,0,0,.232.068" transform="translate(-1249.971 -1011.112)" fill="#fff"/>
        <path id="Path_35766" data-name="Path 35766" d="M1334.69,1363.786a.434.434,0,0,0,.366-.2l28.287-44.405a.434.434,0,0,0-.133-.6l-44.406-28.288a.434.434,0,0,0-.6.133l-28.287,44.405a.434.434,0,0,0,.133.6l44.405,28.288a.434.434,0,0,0,.233.068m27.688-44.706-27.821,43.674-43.674-27.822,27.821-43.674Z" transform="translate(-1256.291 -1035.477)" fill="#fff"/>
        <g id="Group_66959" data-name="Group 66959" transform="translate(-3.96 212.985)">
          <rect id="Rectangle_31101" data-name="Rectangle 31101" width="11.498" height="11.498" transform="translate(51.897 46.694) rotate(-147.502)" fill="#fff"/>
          <path id="Path_35767" data-name="Path 35767" d="M1641.029,1078.706l41.741,26.59-6.178,9.7-35.564-22.655Z" transform="translate(-1641.029 -1078.706)" fill="#fff"/>
          <rect id="Rectangle_31102" data-name="Rectangle 31102" width="11.498" height="11.498" transform="translate(40.842 64.047) rotate(-147.502)" fill="#fff"/>
          <path id="Path_35768" data-name="Path 35768" d="M1697.018,1202.265l30.687,19.548-6.178,9.7-24.509-15.613Z" transform="translate(-1697.017 -1177.869)" fill="#fff"/>
          <rect id="Rectangle_31103" data-name="Rectangle 31103" width="11.498" height="11.498" transform="translate(29.787 81.4) rotate(-147.502)" fill="#fff"/>
        </g>
        <path id="Path_35769" data-name="Path 35769" d="M1753.008,1325.823l19.632,12.506-6.178,9.7-13.454-8.571Z" transform="translate(-1756.968 -1064.046)" fill="#fff"/>
      </g>
    </g>
    <g id="Group_66956" data-name="Group 66956" transform="translate(4.974 0.95)">
      <path id="Path_35771" data-name="Path 35771" d="M297.957,1588.962l1-3.663,4.144.188a15.744,15.744,0,0,1,1.332-2.286l-2.194-3.515,2.7-2.671,3.5,2.236a15.933,15.933,0,0,1,2.3-1.309l-.143-4.147,3.674-.963,1.907,3.678a15.766,15.766,0,0,1,2.646.019l1.949-3.662,3.663,1-.188,4.144a15.72,15.72,0,0,1,2.287,1.332l3.515-2.194,2.671,2.7-2.236,3.5a15.965,15.965,0,0,1,1.309,2.3l4.147-.143.963,3.674-3.678,1.907a15.735,15.735,0,0,1-.019,2.646l3.662,1.949-1,3.663-4.144-.188a15.745,15.745,0,0,1-1.332,2.286l2.194,3.515-2.7,2.671-3.5-2.236a15.924,15.924,0,0,1-2.3,1.309l.143,4.147-3.674.963-1.907-3.678a15.752,15.752,0,0,1-2.646-.019l-1.949,3.661-3.663-1,.188-4.144a15.689,15.689,0,0,1-2.287-1.332l-3.515,2.194-2.671-2.7,2.236-3.5a15.945,15.945,0,0,1-1.309-2.3l-4.147.143-.963-3.674,3.678-1.907a15.742,15.742,0,0,1,.019-2.646Zm16.87,12.787a9.777,9.777,0,1,0-6.848-12.012,9.777,9.777,0,0,0,6.848,12.012" transform="translate(-33.562 -1263.232)" fill="#fff"/>
      <path id="Path_35772" data-name="Path 35772" d="M465.327,1350.153l1.716-6.269,7.091.322a26.889,26.889,0,0,1,2.279-3.913l-3.754-6.014,4.621-4.57,5.982,3.825a27.261,27.261,0,0,1,3.929-2.24l-.245-7.1,6.287-1.648,3.263,6.295a26.912,26.912,0,0,1,4.528.032l3.335-6.266,6.269,1.716-.322,7.092a26.916,26.916,0,0,1,3.913,2.279l6.014-3.754,4.57,4.621-3.826,5.982a27.278,27.278,0,0,1,2.24,3.929l7.1-.245,1.648,6.287-6.294,3.262a26.925,26.925,0,0,1-.033,4.528l6.266,3.335-1.716,6.269-7.091-.322a26.945,26.945,0,0,1-2.279,3.913l3.754,6.014-4.621,4.571-5.981-3.826a27.248,27.248,0,0,1-3.929,2.24l.245,7.1-6.287,1.648-3.263-6.294a26.934,26.934,0,0,1-4.528-.032l-3.335,6.266-6.268-1.716.322-7.091a26.914,26.914,0,0,1-3.913-2.279l-6.014,3.754-4.57-4.62,3.826-5.981a27.269,27.269,0,0,1-2.24-3.929l-7.1.245-1.648-6.287,6.295-3.263a26.9,26.9,0,0,1,.032-4.528Zm28.868,21.882a16.731,16.731,0,1,0-11.718-20.555,16.731,16.731,0,0,0,11.718,20.555" transform="translate(-261.667 -1062.368)" fill="#fff"/>
      <path id="Path_35774" data-name="Path 35774" d="M59.058,657.822a.434.434,0,0,0,.386-.235l74.4-144.228c3.464-6.716,1.152-16.3-6.686-27.708-7.521-10.95-20.091-23.583-36.349-36.535A11.334,11.334,0,0,0,73.69,452.81L9.474,577.292a11.326,11.326,0,0,0,3.1,14.141c17.237,13.376,30.619,26.46,38.7,37.837,8.255,11.624,10.816,21.272,7.406,27.9l-.008.015a.434.434,0,0,0,.385.632m74.017-144.86L60.881,652.908c1.865-14.378-15.408-37.044-47.774-62.16a10.458,10.458,0,0,1-2.862-13.058L74.461,453.207a10.466,10.466,0,0,1,15.81-3.412c33.457,26.653,49.459,50.267,42.8,63.167" transform="translate(225.126 -359.417)" fill="#fff"/>
      <path id="Path_35776" data-name="Path 35776" d="M53.149,698.622a.434.434,0,0,0,.386-.235l74.4-144.227c3.464-6.716,1.152-16.3-6.686-27.708-7.521-10.95-20.09-23.583-36.349-36.535a11.334,11.334,0,0,0-17.121,3.693L3.566,618.093a11.325,11.325,0,0,0,3.1,14.141c17.237,13.376,30.618,26.46,38.7,37.837,8.262,11.632,10.82,21.287,7.4,27.919a.434.434,0,0,0,.385.632m74.018-144.86L54.973,693.709c1.865-14.378-15.408-37.043-47.774-62.16A10.458,10.458,0,0,1,4.337,618.49L68.553,494.008a10.467,10.467,0,0,1,15.81-3.412c33.457,26.653,49.459,50.267,42.8,63.167" transform="translate(232.2 -392.162)" fill="#fff"/>
      <path id="Path_35778" data-name="Path 35778" d="M977.279,168.029a11.352,11.352,0,0,0,10.087-6.142L1051.689,37.2a11.349,11.349,0,0,0-6.2-15.862C1019.615,11.9,996.409,6.273,978.375,5.057,959.74,3.8,947.691,7.39,943.541,15.435l-74.4,144.228a.434.434,0,0,0,.771.4c4.047-7.846,16.113-11.251,34.882-9.848,18.466,1.38,42.168,7.295,68.545,17.106a11.3,11.3,0,0,0,3.943.711M1050.918,36.8,986.595,161.49a10.481,10.481,0,0,1-12.957,5.015c-50.205-18.674-88.736-22.552-101.525-10.717l72.2-139.955c8.038-15.58,47.634-13.1,100.875,6.318a10.482,10.482,0,0,1,5.731,14.65" transform="translate(-862.39 -4.812)" fill="#fff"/>
      <path id="Path_35780" data-name="Path 35780" d="M971.37,208.828a11.353,11.353,0,0,0,10.087-6.142L1045.78,78a11.349,11.349,0,0,0-6.2-15.862C1013.707,52.7,990.5,47.071,972.466,45.856c-18.642-1.256-30.684,2.333-34.834,10.378l-74.4,144.228a.433.433,0,0,0,.771.4c4.047-7.845,16.109-11.251,34.882-9.848,18.466,1.38,42.168,7.295,68.545,17.105a11.291,11.291,0,0,0,3.943.712M1045.01,77.6,980.687,202.289A10.48,10.48,0,0,1,967.73,207.3c-50.2-18.673-88.736-22.552-101.525-10.717L938.4,56.632c8.037-15.58,47.633-13.1,100.875,6.318a10.482,10.482,0,0,1,5.731,14.65" transform="translate(-855.316 -37.555)" fill="#fff"/>
      <path id="Path_35781" data-name="Path 35781" d="M418.378,448.271c1.514.5,3.076.96,4.691,1.351,10.3,2.5,12.4.006,39.339-.933,32.9-1.147,44.037,2.07,51.792,5.466a125.8,125.8,0,0,1,14.064,7.643c20.887,12.363,26.233,20.155,31.67,18.395a6.91,6.91,0,0,0,3.623-3.059c8.358,6.3,17.88,4.9,23.092,3.38,0,1.179-.052,2.378-.159,3.6-.311,3.534-.856,9.722-4.659,14.939-8.187,11.231-28.379,13.724-49.942,6.377,1.365,2.958,12.368,27.849-.6,51-13.4,23.917-42.708,28.72-61.972,25.436-31.421-5.355-56.539-35.7-52.247-53.764.738-3.107,3.992-7.6,10.468-16.453,7.659-10.47,14.588-18.629,19.479-24.117a64.447,64.447,0,0,1-39.27-16.663c-1.437-1.324-2.765-2.675-4-4.039,9.012-3.017,12.962-12.311,14.632-18.561" transform="translate(-304.208 -360.712)" fill="#1f5be3"/>
      <path id="Path_35782" data-name="Path 35782" d="M478.777,581.463a71.213,71.213,0,0,0,22.1-3.463c12.915-4.278,22.953-12.272,29.028-23.118,12.017-21.453,3.744-44.206,1.021-50.489,21.523,7.067,41.329,4.355,49.494-6.845,3.874-5.315,4.417-11.476,4.741-15.157.1-1.179.158-2.4.161-3.638a.433.433,0,0,0-.555-.417c-4.928,1.442-14.431,2.928-22.709-3.311a.433.433,0,0,0-.625.111,6.574,6.574,0,0,1-3.392,2.882c-3.005.973-6.141-1.292-12.389-5.8-4.377-3.16-10.37-7.488-18.926-12.552-6.231-3.688-9.664-5.72-14.111-7.667-7.485-3.278-18.291-6.677-51.981-5.5-10.8.376-17.591,1-22.553,1.455-7.469.686-10.561.969-16.669-.511-1.533-.371-3.1-.823-4.656-1.341a.433.433,0,0,0-.556.3c-1.8,6.742-5.753,15.384-14.351,18.262a.434.434,0,0,0-.184.7c1.291,1.426,2.646,2.795,4.027,4.067a64.4,64.4,0,0,0,38.653,16.716c-6.6,7.451-12.965,15.35-18.919,23.489-6.773,9.259-9.8,13.484-10.54,16.608-1.6,6.721.7,15.231,6.477,23.961,10.175,15.384,28.277,27.29,46.119,30.331a67.509,67.509,0,0,0,11.3.929m51.346-78.227a.434.434,0,0,0-.394.615c2.094,4.538,11.907,28.306-.585,50.608-12.544,22.4-40.685,28.772-61.521,25.221-17.616-3-35.492-14.76-45.541-29.954-5.64-8.529-7.9-16.8-6.357-23.283.733-3.085,4.166-7.778,10.4-16.3,6.113-8.358,12.658-16.461,19.453-24.085a.433.433,0,0,0-.3-.721,63.568,63.568,0,0,1-39-16.549c-1.206-1.111-2.391-2.3-3.532-3.531,8.345-3.128,12.3-11.482,14.168-18.2,1.436.467,2.877.876,4.291,1.218,6.247,1.513,9.6,1.206,16.952.531,4.951-.454,11.733-1.077,22.5-1.452,33.5-1.168,44.2,2.19,51.6,5.429,4.4,1.926,7.815,3.948,14.017,7.619,8.522,5.044,14.5,9.358,18.86,12.509,6.486,4.683,9.741,7.033,13.164,5.926a7.169,7.169,0,0,0,3.6-2.854c8.185,5.93,17.4,4.744,22.547,3.337-.016,1.014-.067,2.017-.152,2.988-.316,3.591-.846,9.6-4.578,14.722-8.058,11.055-27.933,13.555-49.452,6.221a.437.437,0,0,0-.14-.023" transform="translate(-302.444 -358.949)" fill="#fff"/>
      <path id="Path_35783" data-name="Path 35783" d="M1257.8,282.568l2.814,1.8-4.3-7.743a1.336,1.336,0,0,1,2.2-1.493l5.717,7.01-3.936-9.894a1.8,1.8,0,0,1,3.338-1.367l3.762,8.927-1.3-7.783a1.544,1.544,0,0,1,1.474-1.824c.584,0,1.15.343,1.372,1.487.532,2.746,3.317,13.73,3.317,13.73a7.112,7.112,0,0,0,2.769-2.548c1.56-2.114,2.2-.945,2.2-.945.953,3.224-1.358,6.747-3.043,8.774a67.084,67.084,0,0,0,23.793,14.321c-1.67,6.25-5.619,15.544-14.632,18.561a64.466,64.466,0,0,1-14.86-28.566c-3.977-1.635-10.707-8.988-12.2-10.658a1.185,1.185,0,0,1,1.522-1.787" transform="translate(-1183.804 -217.459)" fill="#1f5be3"/>
      <path id="Path_35784" data-name="Path 35784" d="M1281.58,322.251a.434.434,0,0,0,.138-.022c8.963-3,13.057-11.912,14.913-18.86a.434.434,0,0,0-.282-.523,66.261,66.261,0,0,1-23.334-13.955c1.886-2.353,3.8-5.7,2.863-8.852a.429.429,0,0,0-.035-.085,1.1,1.1,0,0,0-.872-.546c-.641-.044-1.307.428-2.055,1.441a8.77,8.77,0,0,1-2.137,2.156c-.567-2.248-2.718-10.81-3.174-13.164-.309-1.589-1.256-1.833-1.794-1.838h-.016a1.88,1.88,0,0,0-1.429.669,2.034,2.034,0,0,0-.461,1.66l.691,4.131-2.324-5.515a2.237,2.237,0,0,0-4.14,1.7l2.895,7.277-3.936-4.828a1.77,1.77,0,0,0-2.918,1.978l3.469,6.244-1.369-.874a1.618,1.618,0,0,0-2.489,1.364,1.613,1.613,0,0,0,.411,1.077c1.859,2.076,8.151,8.891,12.153,10.681a64.541,64.541,0,0,0,14.911,28.545.434.434,0,0,0,.321.143m14.106-18.714c-1.83,6.61-5.729,14.869-13.976,17.777a63.69,63.69,0,0,1-14.568-28.16.434.434,0,0,0-.258-.3c-3.916-1.61-10.72-9.068-12.044-10.547a.751.751,0,0,1,.965-1.132l2.814,1.8a.434.434,0,0,0,.612-.576l-4.3-7.743a.9.9,0,0,1-.027-.825.9.9,0,0,1,1.515-.184l5.717,7.01a.433.433,0,0,0,.739-.434l-3.936-9.894a1.37,1.37,0,0,1,2.535-1.039l3.762,8.927a.434.434,0,0,0,.827-.24l-1.3-7.783a1.186,1.186,0,0,1,.265-.954,1.025,1.025,0,0,1,.778-.365c.2,0,.73.006.95,1.136.529,2.727,3.208,13.305,3.322,13.754a.434.434,0,0,0,.567.3,7.486,7.486,0,0,0,2.972-2.7c.77-1.044,1.2-1.1,1.3-1.091a.236.236,0,0,1,.153.076c.862,3.073-1.493,6.52-2.98,8.309a.434.434,0,0,0,.042.6,67.454,67.454,0,0,0,23.56,14.281m-39.647-22.73h0Z" transform="translate(-1182.041 -215.697)" fill="#fff"/>
      <path id="Path_35785" data-name="Path 35785" d="M408.094,356.259c-1.852-3.022-1.32-10.281.749-13.807,2.094-3.569,9.291-13.778,9.291-13.778,3.56,2.781-1.745,10.987-1.745,10.987,6.151,3.94,2.7,8.12,2.7,8.12,2.481,5.161-.681,6.92-2.573,7.495,4.108,5.514,10.35,15.96,10.316,29.256-5.212,1.525-14.733,2.918-23.092-3.38,2.347-3.634,4.169-10.912,4.35-24.892" transform="translate(-144.396 -264.729)" fill="#1f5be3"/>
      <path id="Path_35786" data-name="Path 35786" d="M416.36,384.489a31.858,31.858,0,0,0,8.837-1.3.433.433,0,0,0,.312-.415c.032-12.5-5.365-22.617-10.051-29.04a4.957,4.957,0,0,0,2.861-2.518c.608-1.383.444-3.114-.486-5.146a5.207,5.207,0,0,0,.837-3.648c-.268-1.707-1.428-3.269-3.451-4.649,1.016-1.679,4.841-8.528,1.421-11.2a.434.434,0,0,0-.621.092c-.072.1-7.232,10.265-9.311,13.809-2,3.412-2.733,10.816-.81,14.143-.166,12.145-1.605,20.4-4.279,24.54a.433.433,0,0,0,.1.581,23.867,23.867,0,0,0,14.638,4.753m8.281-2.046c-4.944,1.392-14.049,2.675-22.078-3.164,2.634-4.391,4.048-12.722,4.2-24.776a.432.432,0,0,0-.064-.232c-1.692-2.76-1.29-9.878.753-13.361,1.825-3.11,7.63-11.409,8.987-13.342,2.5,2.787-2.129,10.02-2.178,10.1a.434.434,0,0,0,.13.6c2.026,1.3,3.176,2.74,3.419,4.289a4.36,4.36,0,0,1-.816,3.19.434.434,0,0,0-.056.464c.912,1.9,1.108,3.462.584,4.657a4.428,4.428,0,0,1-2.892,2.235.434.434,0,0,0-.222.674c4.644,6.233,10.165,16.248,10.23,28.67" transform="translate(-142.635 -262.967)" fill="#fff"/>
      <path id="Path_35787" data-name="Path 35787" d="M465.81,399.3a.431.431,0,0,0,.283-.106c.124-.107,3.011-2.652,1.678-5.508-1.062-2.278-.9-2.542,0-4.012l.118-.194a3.441,3.441,0,0,0-.012-3.637.433.433,0,0,0-.652-.074l-4.151,3.838a.433.433,0,1,0,.589.637l3.723-3.442a2.542,2.542,0,0,1-.236,2.227l-.117.192c-1.012,1.655-1.25,2.247-.045,4.831,1.054,2.26-1.435,4.464-1.461,4.486a.434.434,0,0,0,.285.761" transform="translate(-197.655 -310.461)" fill="#fff"/>
      <path id="Path_35788" data-name="Path 35788" d="M442.091,426.082a1.848,1.848,0,0,0,1.331-.559l1.488-1.539a.434.434,0,1,0-.623-.6L442.8,424.92a.987.987,0,0,1-1.327.077.434.434,0,1,0-.549.671,1.841,1.841,0,0,0,1.168.414" transform="translate(-169.901 -340.63)" fill="#fff"/>
      <path id="Path_35789" data-name="Path 35789" d="M1145.864,1570.3c-.089.5-15.364,22.557-15.364,22.557l12.329,3.224,12.151-19Z" transform="translate(-1016.035 -1261.203)" fill="#fff"/>
      <path id="Path_35790" data-name="Path 35790" d="M1141.067,1594.753a.435.435,0,0,0,.365-.2l12.151-19a.434.434,0,0,0-.107-.581l-9.116-6.781a.433.433,0,0,0-.67.21c-.416.851-9.367,13.867-15.309,22.448a.434.434,0,0,0,.247.666l12.329,3.224a.428.428,0,0,0,.11.014m11.568-19.327-11.763,18.394-11.424-2.988c6.155-8.89,13.228-19.167,14.774-21.665Z" transform="translate(-1014.273 -1259.439)"/>
      <path id="Path_35791" data-name="Path 35791" d="M1164.774,1649.511s-1.434-6.448-8.471-4.6c0,0-15,15.122-21.972,28.572A5,5,0,0,0,1140,1680.6c9.719-2.463,25.335-8.483,36.212-22.858,0,0-1.345-6.948-4.814-10.661Z" transform="translate(-1037.913 -1320.811)" fill="#fff"/>
      <path id="Path_35792" data-name="Path 35792" d="M1136.988,1679.423a5.523,5.523,0,0,0,1.357-.171c10.744-2.722,25.79-8.926,36.452-23.017a.433.433,0,0,0,.08-.344c-.056-.289-1.409-7.114-4.922-10.875a.434.434,0,0,0-.466-.111l-6.19,2.274a7.3,7.3,0,0,0-2.968-3.894,7.4,7.4,0,0,0-5.9-.56.43.43,0,0,0-.2.114c-.15.152-15.131,15.323-22.05,28.678a5.438,5.438,0,0,0,4.806,7.906m37-23.554c-10.5,13.78-25.284,19.865-35.854,22.543a4.563,4.563,0,0,1-5.18-6.5c6.592-12.723,20.6-27.144,21.812-28.382a6.517,6.517,0,0,1,5.107.487,6.655,6.655,0,0,1,2.717,3.821.434.434,0,0,0,.573.312l6.352-2.334c2.9,3.281,4.235,8.95,4.473,10.049" transform="translate(-1036.15 -1319.048)"/>
      <path id="Path_35793" data-name="Path 35793" d="M1150.851,1727.939c5.3,0,16.74-2.35,33.3-18.323a.434.434,0,1,0-.6-.624c-22.535,21.731-35.631,17.765-35.76,17.722a.434.434,0,0,0-.274.823,11.2,11.2,0,0,0,3.333.4" transform="translate(-1048.644 -1372.412)"/>
      <path id="Path_35794" data-name="Path 35794" d="M1268.464,1722.923a.434.434,0,0,0,.281-.764l-5.381-4.569a.434.434,0,1,0-.561.661l5.381,4.569a.432.432,0,0,0,.281.1" transform="translate(-1156.045 -1379.327)"/>
      <path id="Path_35795" data-name="Path 35795" d="M1249.707,1702.459a.434.434,0,0,0,.27-.774l-5.881-4.658a.434.434,0,0,0-.539.68l5.881,4.658a.434.434,0,0,0,.269.094" transform="translate(-1133.485 -1362.832)"/>
      <path id="Path_35796" data-name="Path 35796" d="M942.088,1315.942l10.231,7.856L943.335,1336l-9.578-9.133Z" transform="translate(-774.529 -1057.065)" fill="#fff"/>
      <path id="Path_35797" data-name="Path 35797" d="M941.573,1334.676l.038,0a.434.434,0,0,0,.312-.175l8.985-12.207a.434.434,0,0,0-.085-.6l-10.231-7.855a.434.434,0,0,0-.609.081l-8.332,10.929a.433.433,0,0,0,.045.576l9.578,9.133a.435.435,0,0,0,.3.12m8.383-12.555-8.44,11.468-8.941-8.525,7.832-10.275Z" transform="translate(-772.767 -1055.304)"/>
      <path id="Path_35798" data-name="Path 35798" d="M877.886,1352.754l9.509-7.7,1.791-6.454c4.995-.123,10.6,3.6,13.674,5.99a3.8,3.8,0,0,1,1.092,4.674c-5.072,10.3-16.511,26.38-22.047,33.952a2.748,2.748,0,0,1-4.9-1.022c-2.445-11.588.886-29.438.886-29.438" transform="translate(-715.165 -1075.246)" fill="#fff"/>
      <path id="Path_35799" data-name="Path 35799" d="M877.947,1383.016a3.151,3.151,0,0,0,2.56-1.31c6.1-8.348,17.092-23.868,22.087-34.016a4.251,4.251,0,0,0-1.214-5.208c-2.941-2.288-8.59-6.085-13.7-6.085q-.125,0-.25,0a.434.434,0,0,0-.407.318l-1.754,6.32-9.4,7.615a.434.434,0,0,0-.153.257c-.033.179-3.319,18.069-.884,29.607a3.112,3.112,0,0,0,2.424,2.424,3.311,3.311,0,0,0,.694.074m9.823-45.75c4.827.044,10.242,3.7,13.077,5.9a3.38,3.38,0,0,1,.969,4.141c-4.966,10.089-15.921,25.562-22.009,33.887a2.3,2.3,0,0,1-2.372.9,2.255,2.255,0,0,1-1.758-1.755c-2.279-10.8.543-27.331.86-29.113l9.384-7.6a.436.436,0,0,0,.145-.221Z" transform="translate(-713.417 -1073.482)"/>
      <path id="Path_35800" data-name="Path 35800" d="M903.493,1399.859a.434.434,0,0,0,.357-.186L919,1377.841a7.852,7.852,0,0,0,1.3-5.293,18.037,18.037,0,0,1,1.106-7.4.434.434,0,1,0-.805-.321,18.632,18.632,0,0,0-1.163,7.814,6.987,6.987,0,0,1-1.151,4.709l-15.147,21.832a.433.433,0,0,0,.356.681" transform="translate(-737.583 -1096.075)"/>
      <path id="Path_35801" data-name="Path 35801" d="M930.665,790.922s-29.214,23.067-44.672,44.658a20.164,20.164,0,0,0-1.653,20.633c7.115,14.455,22.505,40.375,46.324,53.3l20-25.56s-17.493-19.341-30.351-28.149l32.79-36.752L961.26,800.6Z" transform="translate(-773.3 -635.707)" fill="#f2f5fd"/>
      <path id="Path_35802" data-name="Path 35802" d="M794.486,967.556c-1.037,1.826-24.6-15.4-24.6-15.4s18.026-21.1,46.675-128.341c.333-1.247,5.616-27.475,5.616-27.475l39.148,20.519s-6.879,45.131-66.84,150.7" transform="translate(-651.179 -640.057)" fill="#fff"/>
      <path id="Path_35803" data-name="Path 35803" d="M998.515,924.948a.434.434,0,0,0,.418-.319l3.682-13.455a8.8,8.8,0,0,0-1.227-7.3l-2.254-3.3a.433.433,0,1,0-.716.489l2.254,3.3a7.936,7.936,0,0,1,1.106,6.586L998.1,924.4a.434.434,0,0,0,.419.548" transform="translate(-837.838 -723.557)" fill="#fff"/>
      <path id="Path_35804" data-name="Path 35804" d="M1077.658,1249.681a.434.434,0,0,0,.4-.263c.089-.209,8.981-21.068,12.282-31.547a.434.434,0,0,0-.827-.261c-3.288,10.439-12.163,31.259-12.252,31.467a.433.433,0,0,0,.229.569.428.428,0,0,0,.17.035" transform="translate(-940.894 -977.905)" fill="#fff"/>
      <path id="Path_35805" data-name="Path 35805" d="M794.918,471.509c-.745,15.625-2.954,54.613-7.037,70.273a3.366,3.366,0,0,1-4.643,2.205c-9.329-4.211-35.823-15.449-55.984-16.97a4.44,4.44,0,0,1-3.881-5.812c3.863-11.8,12.494-39.507,14.925-58.443a11.323,11.323,0,0,1,10.284-9.944c9.812-.764,25.664-.2,40.591,8.179a11.415,11.415,0,0,1,5.745,10.512" transform="translate(-575.556 -364.161)" fill="#1f5be3"/>
      <path id="Path_35806" data-name="Path 35806" d="M782.864,542.94a3.812,3.812,0,0,0,1.645-.374,3.773,3.773,0,0,0,2.029-2.455c4.081-15.65,6.29-54.419,7.051-70.362a11.921,11.921,0,0,0-5.965-10.911c-14.753-8.284-30.351-9.05-40.837-8.233a11.82,11.82,0,0,0-10.68,10.321c-2.443,19.031-11.238,47.155-14.907,58.363a4.874,4.874,0,0,0,4.26,6.38c19.854,1.5,45.663,12.34,55.838,16.932a3.808,3.808,0,0,0,1.567.338m9.859-73.232c-.759,15.915-2.964,54.613-7.024,70.184a2.907,2.907,0,0,1-1.564,1.892,2.938,2.938,0,0,1-2.48.028c-10.216-4.611-36.137-15.5-56.129-17.007a4.007,4.007,0,0,1-3.5-5.245c3.676-11.232,12.491-39.418,14.943-58.522a10.949,10.949,0,0,1,9.887-9.567c10.37-.808,25.782-.053,40.346,8.125a11.047,11.047,0,0,1,5.524,10.114" transform="translate(-573.794 -362.381)" fill="#fff"/>
      <path id="Path_35807" data-name="Path 35807" d="M808.573,273.446s3.044-6.189,4.117-7.278,1.9-2.24-1.255-4.351-11.405-7.752-16.459-7.715-8.595,3.228-7.039,5.53,2.269,3.271,1.07,3.42-1.861,1.487,1.537,3.455,15.24,10.51,18.029,6.939" transform="translate(-606.996 -204.88)" fill="#fff"/>
      <path id="Path_35808" data-name="Path 35808" d="M788.618,343.974l1.765-9.381c-5.312-2.667-3.173-6.367-2.379-9.321.855-3.179,3.489-10.079,3.489-10.079,4.359,2.561,12.908,1.8,12.908,1.8s-1.225,1.953-.521,2.915.265,4.659.265,4.659a2.621,2.621,0,0,1,3.159-.338c.919.618-.131,3.253-.884,4.732a3.588,3.588,0,0,1-2.371,1.77s-.267-.159-.812,1.144l2.9,15.281,5.694,2.363-12.67,1.71a15.167,15.167,0,0,1-11.249-2.988l-4.539-3.475Z" transform="translate(-604.347 -253.909)" fill="#1f5be3"/>
      <path id="Path_35809" data-name="Path 35809" d="M795.4,350.033a15.36,15.36,0,0,0,2.055-.138l12.67-1.71a.434.434,0,0,0,.108-.83l-5.478-2.274-2.832-14.921a2.913,2.913,0,0,1,.427-.764l.011,0a4.008,4.008,0,0,0,2.681-2c.66-1.3,2.052-4.406.739-5.289a2.818,2.818,0,0,0-2.883-.164c.092-1.243.14-3.27-.432-4.053-.431-.59.262-1.987.539-2.43a.434.434,0,0,0-.406-.662c-.084.008-8.462.721-12.65-1.74a.433.433,0,0,0-.625.219c-.108.283-2.651,6.957-3.5,10.121-.1.388-.232.786-.366,1.208-.856,2.68-1.916,6,2.678,8.462l-1.649,8.762-4.941.745a.434.434,0,0,0-.2.773l4.539,3.475a15.721,15.721,0,0,0,9.516,3.211m13.018-2.493-11.079,1.5a14.831,14.831,0,0,1-10.927-2.9l-3.728-2.854,4.235-.638a.433.433,0,0,0,.361-.349l1.766-9.381a.434.434,0,0,0-.232-.468c-4.267-2.142-3.385-4.9-2.532-7.574.138-.432.268-.84.378-1.247.712-2.646,2.7-7.971,3.3-9.572,3.745,1.913,9.777,1.783,11.931,1.664a2.817,2.817,0,0,0-.124,2.686c.415.569.358,2.887.185,4.352a.433.433,0,0,0,.728.367,2.176,2.176,0,0,1,2.62-.294c.393.264.112,1.936-1.028,4.176a3.159,3.159,0,0,1-2.005,1.527.58.58,0,0,0-.19.029c-.227.075-.547.3-1,1.387a.433.433,0,0,0-.026.248l2.9,15.281a.433.433,0,0,0,.26.32Zm-6.355-18.2a.477.477,0,0,0,.054.027.408.408,0,0,1-.054-.027" transform="translate(-602.584 -252.148)" fill="#fff"/>
      <path id="Path_35810" data-name="Path 35810" d="M838.534,403.349a7.376,7.376,0,0,0,6.675-3.793.434.434,0,0,0-.787-.365c-.109.231-2.708,5.527-10.613,2.214a.434.434,0,0,0-.335.8,13.132,13.132,0,0,0,5.06,1.144" transform="translate(-647.606 -321.121)" fill="#fff"/>
      <path id="Path_35811" data-name="Path 35811" d="M829.736,312.438l-1.624,4.743s-10.328,6.174-22.626,3.674a3.07,3.07,0,0,1-2.378-3.688l.948-8.342a3.068,3.068,0,0,1,3.7-2.306Z" transform="translate(-626.134 -246.882)" fill="#1f5be3"/>
      <path id="Path_35812" data-name="Path 35812" d="M809.674,320.117a36.461,36.461,0,0,0,16.9-4.325.433.433,0,0,0,.188-.232l1.624-4.743a.434.434,0,0,0-.3-.559L806.1,304.339a3.5,3.5,0,0,0-4.232,2.628.464.464,0,0,0-.008.047l-.946,8.319a3.5,3.5,0,0,0,2.719,4.185,30.276,30.276,0,0,0,6.036.6m16.319-4.992c-1.248.7-10.948,5.829-22.182,3.545a2.637,2.637,0,0,1-2.041-3.167.429.429,0,0,0,.008-.047l.946-8.318a2.634,2.634,0,0,1,3.168-1.957l21.522,5.8Z" transform="translate(-624.371 -245.12)" fill="#fff"/>
      <path id="Path_35813" data-name="Path 35813" d="M864.394,345.931a.434.434,0,0,0,.307-.74l-3.939-3.938a.434.434,0,0,0-.613.613l3.938,3.938a.432.432,0,0,0,.307.127" transform="translate(-672.478 -274.721)" fill="#fff"/>
      <path id="Path_35814" data-name="Path 35814" d="M896.133,334.091a.434.434,0,0,0,.307-.74l-5.9-5.9a.434.434,0,0,0-.613.613l5.9,5.9a.432.432,0,0,0,.307.127" transform="translate(-710.096 -263.645)" fill="#fff"/>
      <path id="Path_35815" data-name="Path 35815" d="M100.33,904.3h.012c13.558-.36,22.178-3.925,25.618-10.595l74.4-144.227a.434.434,0,1,0-.771-.4c-4.064,7.878-16.2,11.279-35.1,9.832-18.6-1.423-42.444-7.415-68.967-17.328a11.344,11.344,0,0,0-14.045,5.424L17.151,871.7a11.35,11.35,0,0,0,6.189,15.856c7.684,2.817,15.25,5.336,22.486,7.487a.434.434,0,1,0,.247-.831c-7.219-2.146-14.767-4.659-22.435-7.47A10.482,10.482,0,0,1,17.922,872.1L82.247,747.405a10.476,10.476,0,0,1,12.971-5.01c31.374,11.726,58.219,17.7,77.139,17.7,11.557,0,20.154-2.229,25.027-6.741L125.189,893.307c-3.239,6.278-11.839,9.779-24.871,10.125a.434.434,0,0,0,.011.867" transform="translate(158.609 -595.533)" fill="#fff"/>
      <path id="Path_35816" data-name="Path 35816" d="M722.064,1523.123a.434.434,0,0,0,.1-.856c-5.811-1.32-11.957-2.94-18.267-4.815a.434.434,0,1,0-.247.831c6.328,1.881,12.492,3.506,18.322,4.83a.424.424,0,0,0,.1.011" transform="translate(-499.211 -1218.772)" fill="#fff"/>
      <path id="Path_35817" data-name="Path 35817" d="M610.861,1546.585a.434.434,0,0,0,.043-.865,188.325,188.325,0,0,1-22.8-3.851.434.434,0,1,0-.192.846,189.12,189.12,0,0,0,22.911,3.869l.043,0" transform="translate(-365.15 -1238.375)" fill="#fff"/>
      <path id="Path_35818" data-name="Path 35818" d="M532.006,1562.858q1.142,0,2.24-.029a.434.434,0,0,0-.023-.867,106.082,106.082,0,0,1-13.174-.552.434.434,0,1,0-.086.863c3.919.39,7.623.586,11.043.586" transform="translate(-275.295 -1254.064)" fill="#fff"/>
      <path id="Path_35819" data-name="Path 35819" d="M882.74,319.263a11.4,11.4,0,0,0,10.131-6.127.434.434,0,0,0-.771-.4,10.536,10.536,0,0,1-13.966,4.583c-2.82-1.393-5.671-2.833-8.475-4.279-36.966-19.07-69.578-41.139-91.828-62.141-22.126-20.885-31.337-38.15-25.938-48.615L824.075,62.362c-1.429,10.913,8.129,26.6,27.563,44.943,22.307,21.056,54.989,43.175,92.026,62.281,2.711,1.4,5.465,2.79,8.184,4.136A10.468,10.468,0,0,1,956.5,187.9l-21.254,41.2a.434.434,0,1,0,.771.4l21.254-41.2a11.335,11.335,0,0,0-5.037-15.357c-2.715-1.344-5.464-2.733-8.172-4.129-36.967-19.07-69.578-41.138-91.828-62.141-22.109-20.87-31.324-38.125-25.95-48.592l.012-.023a.434.434,0,0,0-.771-.4l-74.4,144.228c-5.592,10.839,3.682,28.469,26.114,49.643,22.307,21.056,54.989,43.175,92.026,62.281,2.808,1.449,5.664,2.891,8.488,4.286a11.241,11.241,0,0,0,4.991,1.165" transform="translate(-744.374 -47.036)" fill="#fff"/>
      <path id="Path_35820" data-name="Path 35820" d="M1008.6,1235.5a.434.434,0,0,0,.386-.235l14.555-28.214a.434.434,0,1,0-.771-.4l-14.555,28.214a.434.434,0,0,0,.385.632" transform="translate(-860.485 -969.17)" fill="#fff"/>
      <path id="Path_35821" data-name="Path 35821" d="M977.235,1158.5a.434.434,0,0,0,.386-.235l6.192-12a.434.434,0,0,0-.771-.4l-6.192,12a.434.434,0,0,0,.385.632" transform="translate(-814.569 -920.379)"/>
      <path id="Path_35822" data-name="Path 35822" d="M863.8,970.017a.434.434,0,0,0,.386-.235l22.4-43.417a.434.434,0,1,0-.771-.4l-22.4,43.417a.434.434,0,0,0,.385.632" transform="translate(-694.938 -743.901)" fill="#fff"/>
      <path id="Path_35826" data-name="Path 35826" d="M1337.36,440.327a.434.434,0,0,0,.264-.778c-24.338-18.607-41.051-36.5-47.059-50.369a.434.434,0,0,0-.8.345c6.066,14.007,22.875,32.017,47.328,50.713a.431.431,0,0,0,.263.089" transform="translate(-1230.288 -313.078)" fill="#fff"/>
      <path id="Path_35827" data-name="Path 35827" d="M1200.686,722.158a.433.433,0,0,0,.23-.8,401.072,401.072,0,0,1-39.291-27.707.434.434,0,0,0-.544.675,401.924,401.924,0,0,0,39.376,27.768.432.432,0,0,0,.229.066" transform="translate(-1068.182 -557.564)" fill="#fff"/>
      <path id="Path_35828" data-name="Path 35828" d="M1433.133,504.153a.434.434,0,0,0,.284-.761c-16.46-14.292-27.64-27.57-32.33-38.4a.434.434,0,1,0-.8.345c4.741,10.947,16,24.332,32.557,38.708a.431.431,0,0,0,.284.106" transform="translate(-1347.884 -373.923)" fill="#fff"/>
      <path id="Path_35829" data-name="Path 35829" d="M1052.272,1076.478a.434.434,0,0,0,.2-.819c-2.675-1.38-5.376-2.8-8.03-4.226a.433.433,0,1,0-.41.764c2.657,1.427,5.363,2.851,8.042,4.233a.431.431,0,0,0,.2.048" transform="translate(-896.643 -860.792)"/>
      <path id="Path_35830" data-name="Path 35830" d="M1109.856,1014.271a.434.434,0,0,0,.205-.816c-8.521-4.576-16.9-9.371-24.9-14.252a.434.434,0,0,0-.451.74c8.014,4.89,16.406,9.693,24.941,14.276a.432.432,0,0,0,.2.052" transform="translate(-962.263 -802.815)" fill="#fff"/>
      <path id="Path_35831" data-name="Path 35831" d="M1295.161,692.807a.434.434,0,0,0,.226-.8c-21.329-13.012-40.343-26.864-54.987-40.057-14.541-13.1-24.517-25.315-28.851-35.323a.434.434,0,0,0-.8.345c9,20.78,40.469,49.108,84.183,75.776a.431.431,0,0,0,.225.064" transform="translate(-1172.488 -495.614)" fill="#fff"/>
      <path id="Path_35832" data-name="Path 35832" d="M1107.142,1108.641a.434.434,0,0,0,.2-.819c-9.245-4.77-18.352-9.8-27.067-14.957a.433.433,0,0,0-.441.746c8.729,5.164,17.851,10.2,27.111,14.981a.432.432,0,0,0,.2.048" transform="translate(-958.585 -877.986)" fill="#fff"/>
      <path id="Path_35833" data-name="Path 35833" d="M1307.129,772.144a.434.434,0,0,0,.221-.807c-46.049-27.239-80.421-57.473-89.7-78.9a.434.434,0,1,0-.8.344c9.349,21.589,43.857,51.976,90.055,79.3a.429.429,0,0,0,.22.061" transform="translate(-1185.661 -556.457)" fill="#fff"/>
      <path id="Path_35834" data-name="Path 35834" d="M1131.921,1210.252a.434.434,0,0,0,.2-.819c-5.407-2.789-10.8-5.688-16.04-8.616a.434.434,0,1,0-.423.757c5.245,2.932,10.65,5.835,16.066,8.629a.43.43,0,0,0,.2.048" transform="translate(-990.436 -964.627)"/>
      <path id="Path_35835" data-name="Path 35835" d="M1298.086,854.308a.434.434,0,0,0,.212-.812c-51.147-28.594-90.685-62.054-100.728-85.243a.434.434,0,0,0-.8.345c4.954,11.439,16.949,25.457,34.689,40.54,17.946,15.258,40.911,30.859,66.412,45.115a.43.43,0,0,0,.211.055" transform="translate(-1172.654 -617.305)" fill="#fff"/>
      <path id="Path_35836" data-name="Path 35836" d="M1411.521,1306.365a.434.434,0,0,0,.225-.8q-2.234-1.356-4.428-2.716a.434.434,0,0,0-.457.737q2.2,1.362,4.436,2.72a.429.429,0,0,0,.224.063m-8.839-5.479a.434.434,0,0,0,.233-.8q-2.211-1.4-4.375-2.8a.433.433,0,1,0-.471.728q2.168,1.4,4.382,2.806a.433.433,0,0,0,.232.067m-8.729-5.651a.433.433,0,0,0,.24-.8q-2.182-1.445-4.316-2.891a.434.434,0,0,0-.486.718q2.137,1.448,4.323,2.9a.433.433,0,0,0,.239.072m-8.609-5.837a.433.433,0,0,0,.248-.79c-1.422-.987-2.852-1.993-4.252-2.99a.434.434,0,0,0-.5.707c1.4,1,2.836,2.006,4.261,3a.431.431,0,0,0,.247.077m-8.477-6.036a.433.433,0,0,0,.256-.784c-1.411-1.032-2.816-2.073-4.176-3.094a.433.433,0,1,0-.521.693c1.363,1.024,2.77,2.067,4.185,3.1a.431.431,0,0,0,.255.083" transform="translate(-1320.743 -1027.736)" fill="#fff"/>
      <path id="Path_35837" data-name="Path 35837" d="M1577.7,1254.058a.433.433,0,0,0,.26-.78l-.1-.078a.433.433,0,1,0-.52.694l.1.078a.432.432,0,0,0,.26.087m-4.24-3.233a.434.434,0,0,0,.266-.776c-1.375-1.063-2.75-2.143-4.087-3.21a.434.434,0,0,0-.541.678c1.341,1.07,2.719,2.153,4.1,3.219a.431.431,0,0,0,.265.091" transform="translate(-1525.761 -1001.529)" fill="#fff"/>
      <path id="Path_35838" data-name="Path 35838" d="M1632.612,1220.277a.434.434,0,0,0,.276-.769c-1.363-1.118-2.7-2.238-3.989-3.328a.434.434,0,1,0-.562.661c1.288,1.094,2.634,2.217,4,3.338a.432.432,0,0,0,.275.1" transform="translate(-1592.366 -976.918)" fill="#fff"/>
      <path id="Path_35839" data-name="Path 35839" d="M1670.458,1187.522a.434.434,0,0,0,.286-.759c-1.318-1.156-2.619-2.322-3.869-3.466a.433.433,0,1,0-.585.64c1.254,1.148,2.56,2.318,3.881,3.478a.433.433,0,0,0,.286.108" transform="translate(-1637.708 -950.519)" fill="#fff"/>
      <path id="Path_35840" data-name="Path 35840" d="M1714.65,1043.389a.433.433,0,0,0,.293-.753q-1.271-1.163-2.5-2.318a.434.434,0,0,0-.594.631q1.23,1.159,2.507,2.326a.431.431,0,0,0,.292.114m-6.248-5.934a.434.434,0,0,0,.3-.742c-1.248-1.232-2.473-2.477-3.643-3.7a.433.433,0,1,0-.626.6c1.175,1.227,2.407,2.477,3.66,3.715a.433.433,0,0,0,.3.125m-7.193-7.518a.433.433,0,0,0,.322-.724c-1.181-1.312-2.325-2.63-3.4-3.917a.434.434,0,0,0-.666.556c1.083,1.295,2.234,2.621,3.422,3.941a.432.432,0,0,0,.322.143m-6.664-7.989a.429.429,0,0,0,.263-.089.433.433,0,0,0,.081-.608c-1.082-1.413-2.105-2.823-3.043-4.191a.434.434,0,0,0-.716.49c.946,1.38,1.979,2.8,3.07,4.228a.433.433,0,0,0,.345.17m-5.863-8.59a.434.434,0,0,0,.372-.655c-.916-1.542-1.742-3.071-2.457-4.543a.434.434,0,0,0-.78.379c.725,1.494,1.563,3.044,2.492,4.607a.432.432,0,0,0,.373.212" transform="translate(-1685.775 -809.856)" fill="#fff"/>
      <path id="Path_35841" data-name="Path 35841" d="M118.74,1487.216c1.43,0,2.846-.023,4.208-.069a.434.434,0,1,0-.029-.867c-1.67.056-3.411.078-5.185.065a.434.434,0,1,0-.007.867q.509,0,1.012,0m-6.21-.134a.434.434,0,0,0,.018-.867c-1.681-.071-3.425-.171-5.182-.3a.433.433,0,1,0-.062.865c1.766.128,3.517.228,5.207.3h.018m15.6-.232.036,0c1.795-.149,3.543-.345,5.2-.584a.434.434,0,1,0-.124-.858c-1.635.236-3.366.431-5.143.578a.434.434,0,0,0,.035.866m-25.976-.511a.434.434,0,0,0,.042-.865c-1.679-.165-3.415-.357-5.162-.571a.434.434,0,1,0-.105.861c1.753.214,3.5.407,5.182.573l.043,0m36.262-1a.442.442,0,0,0,.1-.011,51.431,51.431,0,0,0,5.055-1.4.433.433,0,1,0-.276-.822,50.617,50.617,0,0,1-4.969,1.374.434.434,0,0,0,.095.857m-46.591-.255a.434.434,0,0,0,.061-.863c-1.682-.242-3.41-.507-5.135-.789a.433.433,0,1,0-.14.856c1.73.283,3.463.549,5.151.791a.433.433,0,0,0,.062,0m-10.271-1.674a.434.434,0,0,0,.077-.86c-1.677-.3-3.4-.63-5.1-.969a.434.434,0,0,0-.169.851c1.714.34,3.437.666,5.119.971a.445.445,0,0,0,.078.007m66.682-1.433a.432.432,0,0,0,.194-.046,26.953,26.953,0,0,0,4.479-2.79.434.434,0,1,0-.532-.685,26.107,26.107,0,0,1-4.335,2.7.434.434,0,0,0,.194.821m-76.89-.587a.434.434,0,0,0,.09-.858c-1.667-.356-3.375-.734-5.075-1.122a.434.434,0,1,0-.193.845c1.7.389,3.416.768,5.087,1.125a.438.438,0,0,0,.091.01M61.2,1479.07a.434.434,0,0,0,.1-.855c-1.661-.4-3.358-.825-5.044-1.256a.434.434,0,1,0-.215.84c1.689.432,3.39.856,5.054,1.259a.435.435,0,0,0,.1.012m-10.082-2.577a.434.434,0,0,0,.112-.853c-1.653-.444-3.34-.907-5.013-1.376a.434.434,0,1,0-.234.835c1.676.47,3.366.934,5.023,1.379a.432.432,0,0,0,.113.015m105.18-.939a.432.432,0,0,0,.347-.173,17.468,17.468,0,0,0,1.875-3.123c.235-.507.449-1.031.634-1.559a.434.434,0,1,0-.818-.287c-.176.5-.378,1-.6,1.48a16.6,16.6,0,0,1-1.782,2.968.434.434,0,0,0,.346.694m-115.2-1.872a.434.434,0,0,0,.121-.85q-2.476-.723-4.982-1.484a.434.434,0,1,0-.252.83q2.511.762,4.991,1.487a.432.432,0,0,0,.122.018m-9.958-3.023a.434.434,0,0,0,.13-.847q-2.463-.775-4.952-1.585a.434.434,0,1,0-.268.825q2.493.811,4.96,1.587a.426.426,0,0,0,.13.02m-9.9-3.219a.434.434,0,0,0,.138-.845q-2.449-.822-4.922-1.677a.433.433,0,1,0-.283.819q2.476.856,4.929,1.68a.438.438,0,0,0,.138.022m138.478-1.542a.433.433,0,0,0,.432-.412q.027-.529.027-1.067a24.777,24.777,0,0,0-.377-4.206.434.434,0,0,0-.855.148,23.9,23.9,0,0,1,.364,4.058q0,.516-.025,1.023a.433.433,0,0,0,.411.455h.022m-1.657-10.2a.434.434,0,0,0,.41-.574,46,46,0,0,0-2-4.853.434.434,0,1,0-.782.374,45.151,45.151,0,0,1,1.961,4.76.434.434,0,0,0,.41.293m-4.427-9.4a.433.433,0,0,0,.373-.653c-.843-1.437-1.786-2.923-2.8-4.417a.434.434,0,0,0-.717.487c1,1.478,1.937,2.948,2.771,4.369a.433.433,0,0,0,.374.214m-5.827-8.614a.434.434,0,0,0,.345-.7c-1.017-1.338-2.111-2.712-3.253-4.085a.434.434,0,0,0-.667.554c1.134,1.363,2.22,2.727,3.229,4.055a.433.433,0,0,0,.346.171m-6.643-8.007a.434.434,0,0,0,.323-.723c-1.127-1.259-2.319-2.547-3.543-3.829a.434.434,0,0,0-.627.6c1.217,1.276,2.4,2.557,3.524,3.809a.433.433,0,0,0,.323.144m-7.178-7.533a.433.433,0,0,0,.305-.741c-1.205-1.2-2.466-2.415-3.747-3.625a.434.434,0,0,0-.6.63c1.276,1.205,2.532,2.42,3.732,3.611a.433.433,0,0,0,.305.125M126.424,1415a.433.433,0,0,0,.291-.755c-1.265-1.144-2.577-2.307-3.9-3.456a.434.434,0,1,0-.569.655c1.319,1.146,2.628,2.305,3.888,3.445a.432.432,0,0,0,.29.112m-7.854-6.827a.434.434,0,0,0,.279-.766q-1.206-1.011-2.443-2.025a.434.434,0,0,0-.55.671q1.234,1.011,2.436,2.019a.431.431,0,0,0,.278.1" transform="translate(198.844 -1128.764)" fill="#fff"/>
      <path id="Path_35842" data-name="Path 35842" d="M311.449,129.246a12.459,12.459,0,0,1,17.529-4.575A13.036,13.036,0,0,1,333,142.354a12.741,12.741,0,0,1-7.432,5.837,9.306,9.306,0,0,0-5.5,4.339l-.722,1.264a2.1,2.1,0,0,1-2.906.8L309.08,150.2a2.2,2.2,0,0,1-.745-2.982l.719-1.259a9.448,9.448,0,0,0,1.018-6.935,13.237,13.237,0,0,1,1.377-9.78" transform="translate(-33.539 -99.467)" fill="#fff"/>
      <path id="Path_35843" data-name="Path 35843" d="M399.322,268.986a5.239,5.239,0,0,0,7.239-2l1.748-3.06-9.094-5.431-1.748,3.06a5.49,5.49,0,0,0,1.855,7.428" transform="translate(-124.483 -208.407)" fill="#1f5be3"/>
      <path id="Path_35844" data-name="Path 35844" d="M400.178,268.385a5.631,5.631,0,0,0,1.429-.186,5.779,5.779,0,0,0,3.565-2.759l1.748-3.06a.433.433,0,0,0-.154-.587l-9.094-5.431a.434.434,0,0,0-.6.157l-1.748,3.06a5.932,5.932,0,0,0,2.009,8.016,5.527,5.527,0,0,0,2.843.79m5.778-6.066-1.537,2.691a4.919,4.919,0,0,1-3.032,2.35,4.671,4.671,0,0,1-3.608-.51,5.061,5.061,0,0,1-1.7-6.841l1.529-2.676Z" transform="translate(-122.719 -206.646)" fill="#fff"/>
      <path id="Path_35845" data-name="Path 35845" d="M282.823,43.459a.434.434,0,0,0,.377-.218l6.375-11.122a.434.434,0,0,0-.753-.431L282.447,42.81a.434.434,0,0,0,.376.649" transform="translate(16.769 -26.205)" fill="#fff"/>
      <path id="Path_35846" data-name="Path 35846" d="M223,263.911a.434.434,0,0,0,.216-.81l-14.493-8.3a.434.434,0,0,0-.431.753l14.493,8.3a.431.431,0,0,0,.215.057" transform="translate(97.645 -205.396)" fill="#fff"/>
      <path id="Path_35847" data-name="Path 35847" d="M485.989,115.358a.434.434,0,0,0,.212-.812l-14.988-8.36a.434.434,0,0,0-.423.757l14.988,8.36a.432.432,0,0,0,.211.055" transform="translate(-217.177 -86.126)" fill="#fff"/>
      <path id="Path_35848" data-name="Path 35848" d="M189.222,153.008a.436.436,0,0,0,.118-.016l14.1-3.976a.434.434,0,0,0-.236-.835l-14.1,3.976a.434.434,0,0,0,.117.851" transform="translate(121.127 -119.859)" fill="#fff"/>
      <path id="Path_35849" data-name="Path 35849" d="M414.034,27.867a.434.434,0,0,0,.418-.549l-4.113-14.9a.434.434,0,0,0-.836.231l4.113,14.9a.434.434,0,0,0,.418.318" transform="translate(-133.162 -10.66)" fill="#fff"/>
      <path id="Path_35850" data-name="Path 35850" d="M1291.706,84.194a.434.434,0,0,0,.32-.726q-.82-.9-1.614-1.792a.434.434,0,1,0-.648.576q.8.9,1.622,1.8a.434.434,0,0,0,.32.141m-5.017-5.735a.434.434,0,0,0,.332-.712c-1.134-1.355-2.23-2.713-3.259-4.036a.433.433,0,1,0-.684.532c1.035,1.331,2.138,2.7,3.278,4.06a.434.434,0,0,0,.333.156m-6.379-8.219a.434.434,0,0,0,.353-.685c-1.031-1.447-2.008-2.891-2.9-4.291a.434.434,0,0,0-.731.467c.9,1.412,1.887,2.868,2.927,4.327a.434.434,0,0,0,.354.182m-5.583-8.775a.434.434,0,0,0,.379-.644c-.869-1.568-1.653-3.12-2.329-4.612a.434.434,0,0,0-.79.358c.686,1.513,1.48,3.085,2.36,4.674a.434.434,0,0,0,.38.224m-4.25-9.481a.434.434,0,0,0,.412-.57,35.19,35.19,0,0,1-1.269-4.974.434.434,0,0,0-.855.149,36.083,36.083,0,0,0,1.3,5.1.433.433,0,0,0,.411.3M1268.8,41.772a.433.433,0,0,0,.433-.419,18.648,18.648,0,0,1,.828-5,.434.434,0,0,0-.827-.261,19.516,19.516,0,0,0-.867,5.233.433.433,0,0,0,.419.448h.015m107.836-7.827a.434.434,0,0,0,.128-.848c-1.66-.513-3.337-1.021-4.984-1.509a.434.434,0,0,0-.246.832c1.645.487,3.318.994,4.975,1.506a.435.435,0,0,0,.128.02m-104.693-1.932a.432.432,0,0,0,.355-.184,18.2,18.2,0,0,1,3.48-3.677.434.434,0,0,0-.544-.675,19.059,19.059,0,0,0-3.645,3.853.434.434,0,0,0,.354.683m94.715-1.021a.434.434,0,0,0,.117-.851c-1.679-.474-3.369-.939-5.023-1.382a.434.434,0,0,0-.224.838c1.65.442,3.336.906,5.012,1.379a.435.435,0,0,0,.118.016M1356.607,28.3a.434.434,0,0,0,.106-.854c-1.7-.429-3.4-.845-5.06-1.238a.434.434,0,1,0-.2.844c1.657.392,3.356.807,5.048,1.235a.443.443,0,0,0,.107.013m-10.127-2.392a.434.434,0,0,0,.092-.857c-1.714-.375-3.43-.735-5.1-1.07a.434.434,0,1,0-.17.85c1.665.334,3.376.693,5.085,1.067a.429.429,0,0,0,.093.01m-66.591-.444a.434.434,0,0,0,.194-.046,33.937,33.937,0,0,1,4.755-1.927.434.434,0,0,0-.268-.825,34.815,34.815,0,0,0-4.877,1.977.434.434,0,0,0,.2.821m56.387-1.6a.434.434,0,0,0,.077-.86c-1.732-.312-3.461-.6-5.14-.87a.434.434,0,0,0-.135.857c1.672.264,3.4.556,5.121.867a.438.438,0,0,0,.078.007M1326,22.246a.434.434,0,0,0,.057-.863c-1.75-.233-3.492-.442-5.177-.621a.434.434,0,0,0-.092.862c1.678.178,3.412.386,5.154.618a.443.443,0,0,0,.058,0m-36.262-.047a.429.429,0,0,0,.088-.009c1.605-.33,3.322-.607,5.1-.821a.434.434,0,1,0-.1-.861c-1.8.218-3.542.5-5.17.833a.434.434,0,0,0,.087.858m25.915-1.042a.434.434,0,0,0,.032-.866c-1.773-.132-3.526-.232-5.21-.3a.44.44,0,0,0-.45.417.433.433,0,0,0,.417.45c1.674.064,3.416.164,5.179.3h.033m-15.6-.237h.025c1.659-.093,3.4-.144,5.178-.151a.434.434,0,0,0,0-.867h0c-1.793.008-3.55.059-5.223.152a.434.434,0,0,0,.024.866" transform="translate(-1265.346 -16.923)" fill="#fff"/>
      <path id="Path_35851" data-name="Path 35851" d="M100.869,718.669h.008c1.8-.033,3.552-.112,5.221-.235a.434.434,0,0,0-.064-.865c-1.653.122-3.394.2-5.173.233a.434.434,0,0,0,.008.867m-5.2-.025a.434.434,0,0,0,.011-.867c-1.674-.045-3.417-.125-5.181-.239a.434.434,0,0,0-.056.865c1.774.114,3.529.2,5.214.24h.012m-10.383-.66a.434.434,0,0,0,.041-.865c-1.677-.163-3.412-.356-5.159-.576a.434.434,0,1,0-.108.86c1.755.22,3.5.415,5.183.578l.042,0m25.954-.1a.44.44,0,0,0,.062,0c1.8-.258,3.534-.583,5.15-.965a.433.433,0,1,0-.2-.844c-1.59.376-3.3.7-5.074.951a.434.434,0,0,0,.061.863m-36.279-1.188a.434.434,0,0,0,.064-.862c-1.674-.253-3.4-.533-5.126-.833a.434.434,0,1,0-.149.854c1.734.3,3.466.582,5.145.836a.434.434,0,0,0,.065.005m46.374-1.255a.433.433,0,0,0,.15-.027,31.518,31.518,0,0,0,4.782-2.209.434.434,0,1,0-.432-.752,30.655,30.655,0,0,1-4.651,2.147.434.434,0,0,0,.15.841m-56.627-.523a.434.434,0,0,0,.082-.859c-1.663-.323-3.375-.673-5.09-1.039a.434.434,0,1,0-.181.848c1.72.368,3.438.718,5.106,1.043a.452.452,0,0,0,.083.008m-10.177-2.172a.434.434,0,0,0,.1-.856c-1.659-.384-3.359-.792-5.053-1.212a.434.434,0,1,0-.209.842c1.7.421,3.4.83,5.066,1.215a.428.428,0,0,0,.1.011m-10.1-2.5a.434.434,0,0,0,.11-.853c-1.656-.436-3.344-.894-5.017-1.359a.434.434,0,1,0-.232.835c1.677.466,3.368.925,5.028,1.362a.428.428,0,0,0,.111.014m85.807-.046a.432.432,0,0,0,.3-.118,18.122,18.122,0,0,0,3.306-4.151.434.434,0,1,0-.751-.432,17.257,17.257,0,0,1-3.148,3.951.434.434,0,0,0,.3.75M34.4,707.454a.434.434,0,0,0,.121-.85c-1.643-.48-3.319-.981-4.98-1.488a.434.434,0,1,0-.253.829c1.665.509,3.344,1.01,4.991,1.491a.434.434,0,0,0,.122.017m-9.953-3.038a.434.434,0,0,0,.131-.847q-2.456-.782-4.945-1.6a.434.434,0,1,0-.272.823q2.493.824,4.954,1.607a.435.435,0,0,0,.132.021m110.88-3.106a.434.434,0,0,0,.423-.34,20.536,20.536,0,0,0,.47-4.446q0-.413-.015-.832a.434.434,0,0,0-.867.031q.014.4.014.8a19.676,19.676,0,0,1-.45,4.258.433.433,0,0,0,.329.517.428.428,0,0,0,.094.01m-120.762-.158a.434.434,0,0,0,.14-.844q-2.441-.835-4.91-1.708a.434.434,0,0,0-.289.818q2.473.875,4.918,1.711a.431.431,0,0,0,.14.023M135.083,691a.439.439,0,0,0,.1-.011.433.433,0,0,0,.328-.518A39.712,39.712,0,0,0,134,685.435a.434.434,0,0,0-.813.3,38.858,38.858,0,0,1,1.476,4.923.434.434,0,0,0,.423.339m-3.541-9.757a.434.434,0,0,0,.39-.623c-.727-1.5-1.557-3.052-2.465-4.617a.434.434,0,1,0-.75.435c.9,1.546,1.717,3.08,2.435,4.56a.434.434,0,0,0,.391.244m-5.2-9.006a.433.433,0,0,0,.361-.673c-.926-1.4-1.932-2.84-2.989-4.283a.434.434,0,1,0-.7.513c1.049,1.432,2.047,2.862,2.965,4.249a.433.433,0,0,0,.362.194m-6.138-8.4a.434.434,0,0,0,.339-.7c-1.05-1.32-2.167-2.674-3.319-4.026a.434.434,0,1,0-.66.563c1.146,1.344,2.256,2.691,3.3,4a.433.433,0,0,0,.34.164m-6.744-7.924a.434.434,0,0,0,.321-.724c-1.138-1.258-2.332-2.544-3.548-3.821a.434.434,0,1,0-.628.6c1.211,1.272,2.4,2.552,3.533,3.8a.433.433,0,0,0,.322.143m-7.173-7.539a.434.434,0,0,0,.307-.74c-1.2-1.2-2.452-2.433-3.719-3.652a.434.434,0,1,0-.6.625c1.263,1.215,2.51,2.44,3.707,3.639a.431.431,0,0,0,.307.128m-7.5-7.218a.434.434,0,0,0,.295-.752c-1.251-1.159-2.547-2.34-3.853-3.508a.434.434,0,0,0-.579.646c1.3,1.165,2.6,2.342,3.842,3.5a.432.432,0,0,0,.295.116m-7.754-6.941a.434.434,0,0,0,.284-.761c-1.291-1.118-2.624-2.256-3.963-3.382a.434.434,0,0,0-.558.664c1.336,1.123,2.666,2.258,3.953,3.374a.432.432,0,0,0,.284.106" transform="translate(224.115 -506.533)" fill="#fff"/>
      <g id="Group_66958" data-name="Group 66958" transform="translate(103.409 283.404)">
        <path id="Path_35852" data-name="Path 35852" d="M1280.063,1443.34a.434.434,0,0,0,.434-.424l.05-2.306a.434.434,0,0,0-.867-.019l-.05,2.306a.434.434,0,0,0,.424.443h.009" transform="translate(-1274.455 -1440.167)" fill="#fff"/>
        <path id="Path_35853" data-name="Path 35853" d="M1280.943,1484.214a.434.434,0,0,0,.434-.424l.049-2.306a.434.434,0,0,0-.867-.019l-.05,2.306a.434.434,0,0,0,.424.443h.009" transform="translate(-1275.509 -1472.97)" fill="#fff"/>
        <path id="Path_35854" data-name="Path 35854" d="M1257.008,1467.442a.434.434,0,0,0,0-.867l-2.272-.018a.438.438,0,0,0-.437.43.434.434,0,0,0,.43.437l2.272.018Z" transform="translate(-1246.349 -1461.346)" fill="#fff"/>
        <path id="Path_35855" data-name="Path 35855" d="M1297.288,1467.122a.434.434,0,0,0,0-.867l-2.272-.018h0a.434.434,0,0,0,0,.867l2.272.018Z" transform="translate(-1294.582 -1461.089)" fill="#fff"/>
      </g>
      <path id="Path_35856" data-name="Path 35856" d="M771.458,180.424a3.9,3.9,0,0,0,1.415-.267,3.966,3.966,0,0,0,2.215-2.147,4.07,4.07,0,0,0-2.029-5.314,3.876,3.876,0,0,0-3.013-.078,3.966,3.966,0,0,0-2.215,2.147,4.07,4.07,0,0,0,2.029,5.314,3.9,3.9,0,0,0,1.6.345m1.246-6.937a3.2,3.2,0,0,1,1.588,4.18,3.106,3.106,0,0,1-1.733,1.682,3.013,3.013,0,0,1-2.344-.061,3.2,3.2,0,0,1-1.588-4.18,3.1,3.1,0,0,1,1.733-1.682,3.014,3.014,0,0,1,2.344.061" transform="translate(-564.804 -139.27)" fill="#fff"/>
    </g>
  </g>
</svg>
