<?xml version="1.0" encoding="utf-8"?> <!-- Generator:Adobe Illustrator 27.5.0,
SVG Export Plug-In . SVG Version:6.00 Build 0) --> <svg version="1.1" id="Layer_1" xmlns="http://www.w3.org/2000/svg" xmlns:xlink="http://www.w3.org/1999/xlink" x="0px" y="0px" viewBox="0 0 114.4 89.4" style="enable-background:new 0 0 114.4 89.4;" xml:space="preserve" > <style type="text/css" > .st0cnf {
    fill: #E6E7E8;
}
.st1cnf {
    fill: #1F5BE3;
}
.st2cnf {
    fill: #CFD1D3;
}
</style> <g id="page-not-found" transform="translate(-2 -19.602)"> <g id="Group_67141" transform="translate(102.11 19.602)"> <path id="Path_35961" class="st0cnf" d="M5.4,0C2.4,0,0,2.4,0,5.4c0,3,2.4,5.4,5.4,5.4c1.5,0,2.8-0.6,3.8-1.6c1-1,1.6-2.3,1.6-3.8 C10.7,2.4,8.3,0,5.4,0z M5.4,7.1c-1,0-1.8-0.8-1.8-1.8c0-1,0.8-1.8,1.8-1.8c1,0,1.8,0.8,1.8,1.8C7.2,6.4,6.4,7.1,5.4,7.1z"/> </g> <g id="Group_67143" transform="translate(18.983 33.01)"> <path class="st1cnf" d="M77.8,7.2v2.7H2.7V7.2c0-2.5,2-4.5,4.5-4.5h66.2C75.8,2.7,77.8,4.7,77.8,7.2z"/> <path class="st0cnf" d="M73.3-2.7H7.1c-5.4,0-9.8,4.4-9.8,9.8v59c0,1.6,0.4,3.1,1.1,4.5h8.8c-2.5,0-4.5-2-4.5-4.5v-51h75.1v51 c0,2.5-2,4.5-4.5,4.5H82c0.7-1.3,1.1-2.9,1.1-4.5v-59C83.1,1.7,78.7-2.7,73.3-2.7z M77.8,9.8H2.7V7.2c0-2.5,2-4.5,4.5-4.5h66.2 c2.5,0,4.5,2,4.5,4.5V9.8z"/> </g> <g id="Group_67148" transform="translate(37.753 55.356)"> <path id="Path_35967" class="st0cnf" d="M21.4,0C9.6,0,0,9.6,0,21.5c0,11.8,9.6,21.5,21.5,21.4c11.8,0,21.4-9.6,21.5-21.4 c0,0,0,0,0,0C42.9,9.6,33.3,0,21.4,0z M21.4,37.5c-8.9,0-16.1-7.2-16.1-16.1c0-8.9,7.2-16.1,16.1-16.1v0c8.9,0,16.1,7.2,16.1,16.1 C37.5,30.3,30.3,37.5,21.4,37.5z"/> </g> <g id="Group_67149" transform="translate(50.93 68.55)"> <polygon class="st0cnf" points="12.1,8.3 16.5,12.7 12.7,16.5 8.3,12.1 3.8,16.5 0,12.7 4.5,8.3 0,3.8 3.8,0 8.3,4.5 12.7,0 16.5,3.8 "/> </g> <g id="Group_67151" transform="translate(16.301 30.328)"> <path id="Path_35970" class="st0cnf" d="M1.1,73.3c1.6,3.2,4.9,5.4,8.8,5.4H76c3.8,0,7.1-2.2,8.8-5.4H1.1z"/> </g> <g id="Group_67153" transform="translate(2 103.623)"> <rect y="0" class="st2cnf" width="114.4" height="5.4"/> </g> </g> </svg>
