<svg xmlns="http://www.w3.org/2000/svg" width="26" height="26" viewBox="0 0 26 26">
    <defs>
        
    </defs>
    <g id="battery_life" transform="translate(-2 -2)">
        <g id="Group_3545">
            <path id="Path_7774" d="M26.7 18H3.3A1.3 1.3 0 0 0 2 19.3v16.462a1.3 1.3 0 0 0 1.3 1.3h23.4a1.3 1.3 0 0 0 1.3-1.3V19.3a1.3 1.3 0 0 0-1.3-1.3zm.433 17.762a.433.433 0 0 1-.433.433H3.3a.433.433 0 0 1-.433-.433V19.3a.433.433 0 0 1 .433-.433h23.4a.433.433 0 0 1 .433.433z" class="certificate-validity-1" transform="translate(0 -9.062)"/>
            <path id="Path_7779" d="M27.567 3.3H25.4v-.866A.433.433 0 0 0 24.967 2h-2.6a.433.433 0 0 0-.433.434V3.3H8.067v-.866A.433.433 0 0 0 7.633 2h-2.6a.433.433 0 0 0-.433.434V3.3H2.433A.433.433 0 0 0 2 3.735V6.77a1.3 1.3 0 0 0 1.3 1.3h23.4a1.3 1.3 0 0 0 1.3-1.3V3.735a.433.433 0 0 0-.433-.435zM22.8 2.867h1.733V4.6a.867.867 0 1 1-1.733 0zm-17.333 0H7.2V4.6a.867.867 0 1 1-1.733 0zm21.667 3.9a.433.433 0 0 1-.434.433H3.3a.433.433 0 0 1-.433-.434v-2.6H4.6V4.6a1.733 1.733 0 1 0 3.467 0v-.432h13.866V4.6a1.733 1.733 0 1 0 3.467 0v-.432h1.733z" class="certificate-validity-1"/>
            <path id="Path_7780" d="M11.035 24h-2.6a.434.434 0 0 0-.435.434v2.6a.434.434 0 0 0 .434.434h2.6a.434.434 0 0 0 .434-.434v-2.6a.434.434 0 0 0-.433-.434zm-.435 2.6H8.867v-1.733H10.6z" class="certificate-validity-1" transform="translate(-3.398 -12.468)"/>
            <path id="Path_7781" d="M19.735 24a1.735 1.735 0 1 0 1.735 1.735A1.735 1.735 0 0 0 19.735 24zm0 2.6a.867.867 0 1 1 .867-.867.867.867 0 0 1-.867.867z" class="certificate-validity-1" transform="translate(-9.067 -12.468)"/>
            <path id="Path_7783" d="M11.035 36h-2.6a.434.434 0 0 0-.435.434v2.6a.434.434 0 0 0 .434.434h2.6a.434.434 0 0 0 .434-.434v-2.6a.434.434 0 0 0-.433-.434zm-.435 2.6H8.867v-1.733H10.6z" class="certificate-validity-1" transform="translate(-3.398 -19.268)"/>
            <path id="Path_7784" d="M21.035 36h-2.6a.434.434 0 0 0-.434.434v2.6a.434.434 0 0 0 .434.434h2.6a.434.434 0 0 0 .434-.434v-2.6a.434.434 0 0 0-.434-.434zm-.435 2.6h-1.733v-1.733H20.6z" class="certificate-validity-1" transform="translate(-9.067 -19.268)"/>
            <path id="Path_7786" d="M11.035 48h-2.6a.434.434 0 0 0-.435.434v2.6a.434.434 0 0 0 .434.434h2.6a.434.434 0 0 0 .434-.434v-2.6a.434.434 0 0 0-.433-.434zm-.435 2.6H8.867v-1.733H10.6z" class="certificate-validity-1" transform="translate(-3.398 -26.071)"/>
            <path id="Path_7787" d="M21.035 48h-2.6a.434.434 0 0 0-.434.434v2.6a.434.434 0 0 0 .434.434h2.6a.434.434 0 0 0 .434-.434v-2.6a.434.434 0 0 0-.434-.434zm-.435 2.6h-1.733v-1.733H20.6z" class="certificate-validity-1" transform="translate(-9.067 -26.071)"/>
        </g>
        <g id="bottomCertificate" transform="translate(10.181 8.6)">
            <path id="Path_7799" d="M19.68 54.19a2.289 2.289 0 1 1-2.29-2.29 2.139 2.139 0 0 1 .908.194.249.249 0 0 1-.108.475.13.13 0 0 1-.086-.022 1.789 1.789 0 1 0 1.08 1.642 1.052 1.052 0 0 0-.022-.259.24.24 0 0 1 .238-.281.222.222 0 0 1 .238.216.84.84 0 0 1 .042.325z" class="certificate-validity-1" transform="translate(-8.3 -45.625)"/>
            <path id="Path_7800" d="M13.368 45.3a1.917 1.917 0 0 1 .13-.5 1.6 1.6 0 0 0 .13-1 1.4 1.4 0 0 0-.713-.743 1.373 1.373 0 0 1-.367-.306 1.844 1.844 0 0 1-.173-.459 1.521 1.521 0 0 0-.475-.9 1.457 1.457 0 0 0-.994-.175 1.767 1.767 0 0 1-.5-.022 2.4 2.4 0 0 1-.389-.262 1.494 1.494 0 0 0-.927-.433 1.494 1.494 0 0 0-.929.437 2.4 2.4 0 0 1-.389.262 1.767 1.767 0 0 1-.5.022 1.457 1.457 0 0 0-.994.175 1.412 1.412 0 0 0-.475.9 1.559 1.559 0 0 1-.173.459 1.618 1.618 0 0 1-.389.306 1.5 1.5 0 0 0-.691.764 1.6 1.6 0 0 0 .13 1 1.571 1.571 0 0 1 .13.5 1.728 1.728 0 0 1-.13.5 1.6 1.6 0 0 0-.13 1 1.4 1.4 0 0 0 .713.743 1.373 1.373 0 0 1 .367.306 3.439 3.439 0 0 1 .173.459 1.521 1.521 0 0 0 .475.9 1.457 1.457 0 0 0 .994.175 1.767 1.767 0 0 1 .5.022 2.4 2.4 0 0 1 .389.262 3.666 3.666 0 0 0 .3.218l-.691 2.533-.562-.633a.338.338 0 0 0-.367-.109l-.8.24.583-2.14a.369.369 0 0 0-.022-.262.432.432 0 0 0-.216-.175.348.348 0 0 0-.259.022.359.359 0 0 0-.173.218L5.2 52.381a.342.342 0 0 0 .086.349.385.385 0 0 0 .346.087l1.21-.371.843.939a.374.374 0 0 0 .324.109.362.362 0 0 0 .259-.24l.821-3.036.843 3.014a.326.326 0 0 0 .259.24h.086a.356.356 0 0 0 .259-.109l.843-.939 1.188.371a.334.334 0 0 0 .346-.087.342.342 0 0 0 .087-.349l-.929-3.341a2.5 2.5 0 0 0 .324-.743 1.126 1.126 0 0 1 .173-.459 1.214 1.214 0 0 1 .389-.306 1.686 1.686 0 0 0 .713-.743 1.6 1.6 0 0 0-.13-1 .868.868 0 0 1-.172-.467zm-2.031 6.4a.349.349 0 0 0-.367.109l-.562.633-.691-2.533a3.666 3.666 0 0 0 .3-.218 1.5 1.5 0 0 1 .389-.262 1.767 1.767 0 0 1 .5-.022 4.455 4.455 0 0 0 .54 0l.713 2.577zm1.642-5.132c-.043.131-.238.262-.432.371a2.353 2.353 0 0 0-.562.48 1.978 1.978 0 0 0-.281.7 1.512 1.512 0 0 1-.216.524 1.021 1.021 0 0 1-.54.044 2.087 2.087 0 0 0-.735.044 1.939 1.939 0 0 0-.605.393.981.981 0 0 1-.5.284 1.179 1.179 0 0 1-.5-.284 2.613 2.613 0 0 0-.605-.393 1.471 1.471 0 0 0-.475-.066h-.253a1.424 1.424 0 0 1-.562-.044.981.981 0 0 1-.213-.521 2.371 2.371 0 0 0-.281-.7 2.353 2.353 0 0 0-.562-.48 1.3 1.3 0 0 1-.432-.371.923.923 0 0 1 .13-.524 1.681 1.681 0 0 0 0-1.485 1.21 1.21 0 0 1-.13-.524c.043-.131.238-.262.432-.371a2.353 2.353 0 0 0 .562-.48 2.157 2.157 0 0 0 .281-.7 1.512 1.512 0 0 1 .216-.524 1.021 1.021 0 0 1 .54-.044 1.687 1.687 0 0 0 .735-.066 1.618 1.618 0 0 0 .605-.393.9.9 0 0 1 .5-.284 1.179 1.179 0 0 1 .5.284 2.613 2.613 0 0 0 .605.393 2.1 2.1 0 0 0 .735.066 1.269 1.269 0 0 1 .54.044 1.08 1.08 0 0 1 .216.524 2.157 2.157 0 0 0 .281.7 2.353 2.353 0 0 0 .562.48 1.3 1.3 0 0 1 .432.371c.043.109-.043.328-.13.546a1.681 1.681 0 0 0 0 1.485 1.68 1.68 0 0 1 .13.459.081.081 0 0 1 .013.065z" class="certificate-validity-1" transform="translate(0 -36.729)"/>
        </g>
    </g>
</svg>
