<?xml version="1.0" encoding="utf-8"?>
<!-- Generator: Adobe Illustrator 22.1.0, SVG Export Plug-In . SVG Version: 6.00 Build 0)  -->
<svg version="1.1" id="Layer_1" xmlns="http://www.w3.org/2000/svg" xmlns:xlink="http://www.w3.org/1999/xlink" x="0px" y="0px"
	 viewBox="0 0 100 100" style="enable-background:new 0 0 100 100;" xml:space="preserve">
<g>
	<path d="M58.4,51l37.5-37.5c2.3-2.3,2.3-6.1,0-8.4c-2.3-2.3-6.1-2.3-8.4,0L50,42.6L12.5,5.1c-2.3-2.3-6.1-2.3-8.4,0
		c-2.3,2.3-2.3,6.1,0,8.4L41.6,51L4,88.5c-2.3,2.3-2.3,6.1,0,8.4c1.2,1.2,2.7,1.7,4.2,1.7s3.1-0.6,4.2-1.7L50,59.4l37.5,37.5
		c1.2,1.2,2.7,1.7,4.2,1.7c1.5,0,3.1-0.6,4.2-1.7c2.3-2.3,2.3-6.1,0-8.4L58.4,51z"/>
</g>
</svg>
