<svg xmlns="http://www.w3.org/2000/svg" width="146.641" height="40" viewBox="0 0 146.641 40">
  <g id="Logo" transform="translate(0)">
    <g id="Group_66991" data-name="Group 66991">
      <path id="Path_35857" data-name="Path 35857" d="M8.237,68.282a10.467,10.467,0,0,1-4.244-.809,6.783,6.783,0,0,1-2.9-2.321A6.405,6.405,0,0,1,0,61.471H4.212a3.607,3.607,0,0,0,1.107,2.52A3.946,3.946,0,0,0,8.2,65.014a3.932,3.932,0,0,0,2.527-.748,2.429,2.429,0,0,0,.936-2,2.65,2.65,0,0,0-.828-2.046,6.265,6.265,0,0,0-2.2-1.191l-2.933-.977a9.7,9.7,0,0,1-3.854-2.2A4.867,4.867,0,0,1,.527,52.278a5.354,5.354,0,0,1,.921-3.253,6.24,6.24,0,0,1,2.605-2.107A9.141,9.141,0,0,1,7.86,46.17a9.256,9.256,0,0,1,3.854.764,6.271,6.271,0,0,1,2.62,2.138,5.956,5.956,0,0,1,1.014,3.268H11.074a2.9,2.9,0,0,0-.889-2,3.2,3.2,0,0,0-2.387-.87,3.464,3.464,0,0,0-2.2.626A2.228,2.228,0,0,0,4.709,52,2.178,2.178,0,0,0,5.4,53.7a5.517,5.517,0,0,0,1.872,1.054q1.187.428,2.715.916a18.7,18.7,0,0,1,2.964,1.283A6.018,6.018,0,0,1,15.1,58.89a5.453,5.453,0,0,1,.811,3.1,5.891,5.891,0,0,1-.873,3.115,6.24,6.24,0,0,1-2.59,2.306,9.243,9.243,0,0,1-4.213.87Z" transform="translate(0 -39.119)" fill="#121e2a"/>
      <path id="Path_35858" data-name="Path 35858" d="M126.472,102.485V87.337H130l.344,2.046a5.458,5.458,0,0,1,1.981-1.756,5.975,5.975,0,0,1,2.856-.657,5.332,5.332,0,0,1,5.087,2.718,5.964,5.964,0,0,1,2.262-1.985,6.67,6.67,0,0,1,3.1-.733,5.993,5.993,0,0,1,4.65,1.771,7.44,7.44,0,0,1,1.623,5.192v8.552h-3.995V94.3a4.993,4.993,0,0,0-.765-2.993,2.734,2.734,0,0,0-2.356-1.038,3.27,3.27,0,0,0-2.605,1.161,4.861,4.861,0,0,0-.983,3.237v7.819H137.2V94.3a4.926,4.926,0,0,0-.78-2.993,2.812,2.812,0,0,0-2.4-1.038,3.182,3.182,0,0,0-2.575,1.161,4.861,4.861,0,0,0-.983,3.237v7.819H126.47Z" transform="translate(-107.157 -73.689)" fill="#121e2a"/>
      <path id="Path_35859" data-name="Path 35859" d="M320.674,102.851a7.471,7.471,0,0,1-3.277-.626,4.244,4.244,0,0,1-2.527-3.955,4.137,4.137,0,0,1,1.684-3.421,8.145,8.145,0,0,1,5.055-1.313h3.932V93.17a2.775,2.775,0,0,0-.906-2.291,3.455,3.455,0,0,0-2.246-.733,3.922,3.922,0,0,0-2.123.565,2.436,2.436,0,0,0-1.124,1.664h-3.9a5.267,5.267,0,0,1,1.139-2.871,6.372,6.372,0,0,1,2.543-1.878,8.919,8.919,0,0,1,3.5-.657,7.791,7.791,0,0,1,5.21,1.619,5.685,5.685,0,0,1,1.9,4.581v9.315h-3.4l-.374-2.443a5.434,5.434,0,0,1-5.087,2.81Zm.9-3.054a3.341,3.341,0,0,0,2.668-1.1,5.289,5.289,0,0,0,1.2-2.718h-3.4a3.6,3.6,0,0,0-2.278.565,1.735,1.735,0,0,0-.687,1.39,1.588,1.588,0,0,0,.687,1.374A3.058,3.058,0,0,0,321.578,99.8Z" transform="translate(-266.787 -73.689)" fill="#121e2a"/>
      <path id="Path_35860" data-name="Path 35860" d="M435.84,102.485V87.337H439.4l.374,2.84a6.4,6.4,0,0,1,2.294-2.336,6.514,6.514,0,0,1,3.418-.87v4.123h-1.124a6.487,6.487,0,0,0-2.341.4,3.124,3.124,0,0,0-1.606,1.374,5.364,5.364,0,0,0-.577,2.718v6.9H435.84Z" transform="translate(-369.284 -73.689)" fill="#121e2a"/>
      <path id="Path_35861" data-name="Path 35861" d="M517.429,81.981a6.1,6.1,0,0,1-3.9-1.161q-1.468-1.159-1.466-4.123V70.1H509.41V66.832h2.653l.469-4.062h3.526v4.062h4.181V70.1h-4.181v6.627a1.915,1.915,0,0,0,.484,1.512,2.6,2.6,0,0,0,1.669.412h1.935v3.329H517.43Z" transform="translate(-431.62 -53.186)" fill="#121e2a"/>
      <path id="Path_35862" data-name="Path 35862" d="M600.53,123.238V119.97H613.6v3.268Z" transform="translate(-508.825 -101.65)" fill="#121e2a"/>
    </g>
    <path id="Path_35863" data-name="Path 35863" d="M670.233,15.944,654.29,0h7.971l15.982,15.944Z" transform="translate(-554.376)" fill="#121e2a"/>
    <path id="Path_35864" data-name="Path 35864" d="M699.719,117.23h7.973l-11.128,11.128H689.08Z" transform="translate(-583.853 -99.328)" fill="#121e2a"/>
    <path id="Path_35865" data-name="Path 35865" d="M798.04,28.49l7.29-7.29h7.747L801.861,32.418Z" transform="translate(-676.174 -17.963)" fill="#121e2a"/>
    <path id="Path_35866" data-name="Path 35866" d="M798.04,131.434c.108-.072,4.2-4.2,4.2-4.2L822.815,147.8h-8.5L798.04,131.434Z" transform="translate(-676.174 -107.801)" fill="#121e2a"/>
  </g>
</svg>
