<svg xmlns="http://www.w3.org/2000/svg" width="64.399" height="80" viewBox="0 0 64.399 80">
  <g id="_x31_43" transform="translate(-7.971 -3.482)">
    <path fill="#fff" id="Path_35955" data-name="Path 35955" d="M62.068,38.586,44.646,45.741a4.832,4.832,0,0,1-2.805,1.28L28.978,48.3a1.714,1.714,0,0,1-.173.008,1.738,1.738,0,0,1-.17-3.467L41.5,43.562a1.776,1.776,0,0,0-.347-3.5l-7.085.7a16.709,16.709,0,0,1-9.506-1.907,13.208,13.208,0,0,0-7.529-1.516l-2.332.231,1.689,17.046A16.267,16.267,0,0,1,24.7,56l2.328,1.057a12.554,12.554,0,0,0,10.327.105L63.844,43.514A2.719,2.719,0,0,0,65.1,39.751a2.276,2.276,0,0,0-3.03-1.165Z" transform="translate(4.963 24.931)" fill="#638ceb"/>
    <path fill="#fff" id="Path_35956" data-name="Path 35956" d="M14.4,35.982l-6.434.535L10.917,59.51l5.763-.572a1.5,1.5,0,0,0,1.347-1.644L16.049,37.329A1.5,1.5,0,0,0,14.4,35.982Z" transform="translate(0 23.972)" fill="#638ceb"/>
    <path fill="#fff" id="Path_35957" data-name="Path 35957" d="M40.468,61.333a1.75,1.75,0,0,0,1.651-.07c17.291-10.131,25.233-26.988,24.729-44.7a37.231,37.231,0,0,0-.4-4.57,1.74,1.74,0,0,0-1.964-1.425c-8.594,1.267-20.163-4.61-22.3-6.743a1.731,1.731,0,0,0-2.207.1c-7.127,6.464-17.716,7.979-21.844,6.6a1.715,1.715,0,0,0-1.355.278,1.763,1.763,0,0,0-.713,1.164c-3.441,23.269,7.212,37.9,24.4,49.353Zm1.112-47.65a44.8,44.8,0,0,0,16.578,5.6A39.514,39.514,0,0,1,41.146,51.566C30.6,44.123,24.028,33.009,24.168,19.452A35.378,35.378,0,0,0,41.58,13.683Z" transform="translate(5.5 0)" fill="#638ceb"/>
    <path fill="#fff" id="Path_35958" data-name="Path 35958" d="M32.3,29.738a1.738,1.738,0,0,0,1.389-.694l7.583-10.095a1.737,1.737,0,1,0-2.778-2.087L32.177,25.27l-3.125-3.46a1.738,1.738,0,0,0-2.58,2.33l4.538,5.025a1.737,1.737,0,0,0,1.29.573Z" transform="translate(13.32 9.359)" fill="#638ceb"/>
  </g>
</svg>
