<svg xmlns="http://www.w3.org/2000/svg" width="16" height="16" viewBox="0 0 16 16">
  <g id="downloads" transform="translate(0 0)">
    <path id="Path_21891" data-name="Path 21891" d="M12.444,16H3.556A3.556,3.556,0,0,1,0,12.444v-.889a.889.889,0,1,1,1.778,0v.889a1.778,1.778,0,0,0,1.778,1.778h8.889a1.778,1.778,0,0,0,1.778-1.778v-.889a.889.889,0,1,1,1.778,0v.889A3.556,3.556,0,0,1,12.444,16ZM8,12.444a.886.886,0,0,1-.621-.253h0l0,0h0l0,0L3.816,8.629A.889.889,0,1,1,5.073,7.371L7.111,9.41V.889a.889.889,0,1,1,1.778,0V9.41l2.038-2.038a.889.889,0,0,1,1.257,1.257L8.629,12.184l0,0h0l0,0h0l-.03.028a.883.883,0,0,1-.245.155h0A.885.885,0,0,1,8,12.444Z" fill="#1f5be3"/>
  </g>
</svg>
