<svg xmlns="http://www.w3.org/2000/svg" width="40.001" height="40" viewBox="0 0 40.001 40">
  <g id="Group_67154" data-name="Group 67154" transform="translate(-915 -199)">
    <path id="quality" d="M19.918,0a2.423,2.423,0,0,0-1.643.709l-2.44,2.44a.651.651,0,0,1-.661.179l-3.334-.893A2.434,2.434,0,0,0,8.861,4.154L7.968,7.487a.65.65,0,0,1-.485.484l-3.333.893a2.436,2.436,0,0,0-1.72,2.979l.893,3.333a.652.652,0,0,1-.177.663L.7,18.28a2.435,2.435,0,0,0,0,3.439l2.44,2.44a.652.652,0,0,1,.178.663l-.893,3.333a2.436,2.436,0,0,0,1.72,2.979l3.333.893a.65.65,0,0,1,.485.484l.893,3.333a2.434,2.434,0,0,0,2.979,1.719l3.334-.893a.651.651,0,0,1,.661.179l2.44,2.44a2.438,2.438,0,0,0,3.441,0l2.438-2.44a.65.65,0,0,1,.663-.179l3.333.893a2.434,2.434,0,0,0,2.979-1.719l.893-3.333a.65.65,0,0,1,.484-.484l3.335-.893a2.437,2.437,0,0,0,1.719-2.979l-.9-3.337a.656.656,0,0,1,.18-.66l2.44-2.44a2.434,2.434,0,0,0,0-3.439l-2.44-2.441a.656.656,0,0,1-.18-.66l.9-3.337a2.437,2.437,0,0,0-1.719-2.979l-3.335-.893a.65.65,0,0,1-.484-.484l-.893-3.333A2.434,2.434,0,0,0,28.15,2.435l-3.333.893a.65.65,0,0,1-.663-.179L21.715.709Zm.076,29.174A9.175,9.175,0,1,1,29.169,20,9.175,9.175,0,0,1,19.994,29.174Zm0-20.1A10.922,10.922,0,1,1,9.074,20,10.935,10.935,0,0,1,19.994,9.077Z" transform="translate(915.006 199)" fill="#fc3d43" fill-rule="evenodd"/>
    <path id="Close_-_Outline" data-name="Close - Outline" d="M9.778,11.725a.841.841,0,0,1-.6-.245l-2.9-2.9-2.907,2.9a.864.864,0,0,1-.6.245.841.841,0,0,1-.6-.245.851.851,0,0,1,0-1.2l2.907-2.9-2.9-2.9a.851.851,0,0,1,0-1.2.851.851,0,0,1,1.2,0l2.9,2.9,2.9-2.9a.851.851,0,0,1,1.2,0,.851.851,0,0,1,0,1.2l-2.9,2.9,2.9,2.9a.851.851,0,0,1,0,1.2A.864.864,0,0,1,9.778,11.725Z" transform="translate(929.225 212.125)" fill="#fff"/>
  </g>
</svg>
