<svg xmlns="http://www.w3.org/2000/svg" xmlns:xlink="http://www.w3.org/1999/xlink" width="584.419" height="173.441" viewBox="0 0 584.419 173.441">
  <defs>
    <linearGradient id="linear-gradient" x1="0.849" y1="0.31" x2="0.361" y2="0.799" gradientUnits="objectBoundingBox">
      <stop offset="0" stop-color="#00a0ff"/>
      <stop offset="0.007" stop-color="#00a1ff"/>
      <stop offset="0.26" stop-color="#00beff"/>
      <stop offset="0.512" stop-color="#00d2ff"/>
      <stop offset="0.76" stop-color="#00dfff"/>
      <stop offset="1" stop-color="#00e3ff"/>
    </linearGradient>
    <linearGradient id="linear-gradient-2" x1="0.97" y1="0.436" x2="-1.177" y2="0.436" gradientUnits="objectBoundingBox">
      <stop offset="0" stop-color="#ffe000"/>
      <stop offset="0.409" stop-color="#ffbd00"/>
      <stop offset="0.775" stop-color="orange"/>
      <stop offset="1" stop-color="#ff9c00"/>
    </linearGradient>
    <linearGradient id="linear-gradient-3" x1="0.761" y1="0.213" x2="-0.443" y2="1.411" gradientUnits="objectBoundingBox">
      <stop offset="0" stop-color="#ff3a44"/>
      <stop offset="1" stop-color="#c31162"/>
    </linearGradient>
    <linearGradient id="linear-gradient-4" x1="-0.17" y1="-0.275" x2="0.367" y2="0.26" gradientUnits="objectBoundingBox">
      <stop offset="0" stop-color="#32a071"/>
      <stop offset="0.068" stop-color="#2da771"/>
      <stop offset="0.476" stop-color="#15cf74"/>
      <stop offset="0.801" stop-color="#06e775"/>
      <stop offset="1" stop-color="#00f076"/>
    </linearGradient>
    <linearGradient id="linear-gradient-5" x1="0.624" y1="0.038" x2="-0.364" y2="1.027" gradientUnits="objectBoundingBox">
      <stop offset="0" stop-color="#cc2e36"/>
      <stop offset="1" stop-color="#9c0e4e"/>
    </linearGradient>
    <linearGradient id="linear-gradient-6" x1="5.233" y1="-7.998" x2="-1.121" y2="-1.634" gradientUnits="objectBoundingBox">
      <stop offset="0" stop-color="#008de0"/>
      <stop offset="0.007" stop-color="#008de0"/>
      <stop offset="0.26" stop-color="#00a7e0"/>
      <stop offset="0.512" stop-color="#00b8e0"/>
      <stop offset="0.76" stop-color="#00c4e0"/>
      <stop offset="1" stop-color="#00c7e0"/>
    </linearGradient>
    <linearGradient id="linear-gradient-7" x1="0.943" y1="-0.195" x2="-2.414" y2="-0.195" gradientUnits="objectBoundingBox">
      <stop offset="0" stop-color="#e0c500"/>
      <stop offset="0.409" stop-color="#e0a600"/>
      <stop offset="0.775" stop-color="#e09100"/>
      <stop offset="1" stop-color="#e08900"/>
    </linearGradient>
    <linearGradient id="linear-gradient-8" x1="0.944" y1="0.999" x2="-2.414" y2="0.999" gradientUnits="objectBoundingBox">
      <stop offset="0" stop-color="#ffe840"/>
      <stop offset="0.409" stop-color="#ffce40"/>
      <stop offset="0.775" stop-color="#ffbc40"/>
      <stop offset="1" stop-color="#ffb540"/>
    </linearGradient>
    <linearGradient id="linear-gradient-9" x1="5.219" y1="0.865" x2="-1.113" y2="6.933" gradientUnits="objectBoundingBox">
      <stop offset="0" stop-color="#40b8ff"/>
      <stop offset="0.007" stop-color="#40b9ff"/>
      <stop offset="0.26" stop-color="#40ceff"/>
      <stop offset="0.512" stop-color="#40ddff"/>
      <stop offset="0.76" stop-color="#40e7ff"/>
      <stop offset="1" stop-color="#40eaff"/>
    </linearGradient>
    <linearGradient id="linear-gradient-10" x1="-0.137" y1="-0.184" x2="0.304" y2="0.257" gradientUnits="objectBoundingBox">
      <stop offset="0" stop-color="#65b895"/>
      <stop offset="0.068" stop-color="#62bd95"/>
      <stop offset="0.476" stop-color="#50db97"/>
      <stop offset="0.801" stop-color="#44ed98"/>
      <stop offset="1" stop-color="#40f498"/>
    </linearGradient>
  </defs>
  <g id="google-play-icon" transform="translate(15005.873 42.638)">
    <path id="Path_18172" data-name="Path 18172" d="M562.774,173.441H21.645A21.726,21.726,0,0,1,0,151.761V21.68A21.726,21.726,0,0,1,21.645,0H562.774a21.726,21.726,0,0,1,21.645,21.68V151.761a21.726,21.726,0,0,1-21.645,21.68" transform="translate(-15005.873 -42.638)" fill="#fff"/>
    <path id="Path_18173" data-name="Path 18173" d="M562.774,0H21.645A21.726,21.726,0,0,0,0,21.68V151.761a21.726,21.726,0,0,0,21.645,21.68H562.774a21.726,21.726,0,0,0,21.645-21.68V21.68A21.726,21.726,0,0,0,562.774,0m0,3.469A18.218,18.218,0,0,1,580.956,21.68V151.761a18.218,18.218,0,0,1-18.182,18.213H21.645A18.219,18.219,0,0,1,3.463,151.761V21.68A18.219,18.219,0,0,1,21.645,3.469H562.774" transform="translate(-15005.873 -42.638)" fill="none"/>
    <path id="Path_18174" data-name="Path 18174" d="M944.887,167.41a11.753,11.753,0,0,1-3.225,8.684,12.585,12.585,0,0,1-9.543,3.85,13.59,13.59,0,1,1,0-27.18,13.378,13.378,0,0,1,5.332,1.091,10.712,10.712,0,0,1,4.062,2.906l-2.283,2.288a8.763,8.763,0,0,0-7.111-3.086,10.391,10.391,0,1,0,7.255,17.878,8.189,8.189,0,0,0,2.178-5.27h-9.433v-3.125h12.587a11.121,11.121,0,0,1,.181,1.963" transform="translate(-15745.484 -165.632)"/>
    <path id="Path_18175" data-name="Path 18175" d="M943.1,165.619h-.433a11.315,11.315,0,0,1-3.1,8.377l0,0,0,0a12.15,12.15,0,0,1-9.23,3.716,13.156,13.156,0,1,1,0-26.313,12.952,12.952,0,0,1,5.161,1.055,10.292,10.292,0,0,1,3.9,2.788l.331-.28-.306-.307-2.283,2.29.306.3.333-.277a9.209,9.209,0,0,0-7.444-3.242,10.825,10.825,0,1,0,7.561,18.618,8.633,8.633,0,0,0,2.3-5.539l.04-.471h-9.472v-2.258h12.154v-.434l-.426.076a10.6,10.6,0,0,1,.174,1.887h.866a11.482,11.482,0,0,0-.188-2.041l-.064-.356H929.9v3.992h9.865v-.434l-.431-.037a7.77,7.77,0,0,1-2.053,5,9.9,9.9,0,0,1-13.741.011,10.469,10.469,0,0,1,0-14.383,9.423,9.423,0,0,1,6.793-2.766,8.329,8.329,0,0,1,6.78,2.932l.3.362,2.616-2.624.281-.281-.255-.3a11.123,11.123,0,0,0-4.222-3.026,13.808,13.808,0,0,0-5.5-1.127,14.024,14.024,0,1,0,0,28.047,13.029,13.029,0,0,0,9.856-3.984l-.313-.3.306.307a12.192,12.192,0,0,0,3.352-8.99H943.1m19.954-10.867H951.224V163h10.667v3.126H951.224v8.249h11.829v3.2H947.89V151.555h15.163v3.2" transform="translate(-15743.696 -163.841)"/>
    <path id="Path_18176" data-name="Path 18176" d="M1091.343,157.16v-.434h-12.262v9.116h10.667V168.1h-10.667v9.116h11.829v2.329h-14.3V154.4h14.3v2.762h.433v0h.433v-3.63h-16.029v26.883h16.029V176.35h-11.829v-7.382h10.667v-3.993h-10.667v-7.382h11.829v-.434h-.433m14.074,22.82h-3.34v-22.82h-7.255v-3.2h17.849v3.2h-7.255v22.82" transform="translate(-15871.987 -166.249)"/>
    <path id="Path_18177" data-name="Path 18177" d="M1182.45,179.98v-.434h-2.907v-22.82h-7.255V154.4h16.983v2.329h-7.255V179.98h.433v0h.433V157.593h7.255V153.53h-18.715v4.063h7.255v22.82h4.206v-.434h-.433m20.169,0V153.963h3.336V179.98h-3.336" transform="translate(-15949.019 -166.249)"/>
    <path id="Path_18178" data-name="Path 18178" d="M1329.722,179.98h.433V154.4h2.47v25.149h-2.9v.434h0v.434h3.769V153.53h-4.2v26.883h.433v-.434m18.141,0h-3.34v-22.82h-7.254v-3.2h17.849v3.2h-7.255v22.82" transform="translate(-16076.121 -166.249)"/>
    <path id="Path_18179" data-name="Path 18179" d="M1379.042,179.363v-.434h-2.907v-22.82h-7.254v-2.329h16.983v2.329h-7.255v23.254h.433v0h.433V156.977h7.255v-4.063h-18.714v4.063h7.254V179.8h4.206v-.434h-.433m24.463-5.54a9.977,9.977,0,0,0,14.112,0,11.1,11.1,0,0,0,0-14.936,9.976,9.976,0,0,0-14.112,0,11.113,11.113,0,0,0,0,14.936Zm16.58,2.178a13.469,13.469,0,0,1-19.044,0,14.07,14.07,0,0,1,0-19.292,13.424,13.424,0,0,1,19.027.017,14.026,14.026,0,0,1,.017,19.275Z" transform="translate(-16107.301 -165.632)"/>
    <path id="Path_18180" data-name="Path 18180" d="M1522.352,172.032l-.308.3a10.409,10.409,0,0,0,14.727,0,11.532,11.532,0,0,0,0-15.546,10.409,10.409,0,0,0-14.727,0,11.546,11.546,0,0,0,0,15.546l.308-.3.308-.3a10.681,10.681,0,0,1,0-14.326,9.545,9.545,0,0,1,13.5,0,10.671,10.671,0,0,1,0,14.326,9.545,9.545,0,0,1-13.5,0Zm16.58,2.178-.309-.3a13.042,13.042,0,0,1-18.426,0l-.012-.014.012.014a13.642,13.642,0,0,1,0-18.689,12.994,12.994,0,0,1,18.409.019,13.595,13.595,0,0,1,.017,18.671l.309.3.312.3a14.46,14.46,0,0,0-.017-19.877,13.855,13.855,0,0,0-19.65-.017v0a14.509,14.509,0,0,0,0,19.9l.012.012-.012-.014a13.9,13.9,0,0,0,19.667,0Zm8.511,3.362V151.555h4.062l12.623,20.239h.144l-.144-5.014V151.555h3.34v26.016h-3.484l-13.207-21.22h-.144l.144,5.015v16.2h-3.335" transform="translate(-16226.148 -163.841)"/>
    <path id="Path_18181" data-name="Path 18181" d="M1061.233,179.98h.433V154.4h3.389l12.623,20.239h.829l-.156-5.454V154.4h2.474v25.149h-2.81l-13.207-21.22h-.828l.155,5.456v15.764h-2.9v.434h0v.434H1065V163.769l-.144-5.02-.433.012v.434h.144v-.434l-.367.231,13.334,21.423h4.156V153.53h-4.205v15.664l.144,5.02.433-.012v-.434h-.144v.434l.367-.23-12.751-20.442H1060.8v26.883h.433v-.434m135.761,73.713h8.078V199.487h-8.078Zm72.758-34.679-9.26,23.5h-.277l-9.611-23.5h-8.7l14.411,32.847L1248.1,270.13h8.428l22.208-51.118Zm-45.81,28.523c-2.649,0-6.338-1.325-6.338-4.6,0-4.184,4.6-5.788,8.563-5.788a14.357,14.357,0,0,1,7.381,1.814A9.8,9.8,0,0,1,1223.942,247.536Zm.974-29.709c-5.849,0-11.9,2.581-14.411,8.3l7.169,3c1.532-3,4.385-3.975,7.381-3.975,4.177,0,8.424,2.512,8.494,6.975v.557a17.842,17.842,0,0,0-8.424-2.092c-7.727,0-15.6,4.253-15.6,12.2,0,7.253,6.338,11.926,13.438,11.926,5.433,0,8.424-2.441,10.307-5.3h.277V253.6h7.8V232.82c0-9.622-7.169-14.993-16.429-14.993Zm-49.922,7.784H1163.5v-18.58h11.489a9.292,9.292,0,1,1,0,18.58Zm-.208-26.124h-19.355v54.206h8.073V233.156h11.282c8.952,0,17.753-6.492,17.753-16.835s-8.8-16.834-17.753-16.834ZM1069.24,247.546c-5.581,0-10.253-4.68-10.253-11.108,0-6.5,4.672-11.246,10.253-11.246,5.51,0,9.833,4.751,9.833,11.246,0,6.428-4.324,11.108-9.833,11.108Zm9.275-25.5h-.279a12.752,12.752,0,0,0-9.694-4.121c-9.206,0-17.644,8.1-17.644,18.511,0,10.339,8.438,18.372,17.644,18.372a12.549,12.549,0,0,0,9.694-4.191h.279v2.654c0,7.057-3.766,10.828-9.833,10.828-4.952,0-8.021-3.564-9.277-6.567l-7.043,2.934a17.548,17.548,0,0,0,16.32,10.9c9.485,0,17.505-5.59,17.505-19.211V219.045h-7.672Zm13.251,31.644h8.09V199.485h-8.09Zm20.016-17.883a10.107,10.107,0,0,1,9.624-10.757c3.21,0,5.929,1.606,6.834,3.913Zm25.107-6.147c-1.533-4.123-6.208-11.736-15.763-11.736-9.485,0-17.365,7.474-17.365,18.441a18.032,18.032,0,0,0,18.271,18.442,18.311,18.311,0,0,0,15.345-8.173l-6.277-4.192c-2.091,3.074-4.952,5.1-9.068,5.1a9.367,9.367,0,0,1-8.927-5.588l24.619-10.2Zm-196.14-6.077v7.824h18.69c-.558,4.4-2.023,7.614-4.255,9.849-2.719,2.725-6.974,5.728-14.436,5.728a20.819,20.819,0,0,1,0-41.634,19.9,19.9,0,0,1,14.087,5.589l5.51-5.518a27.22,27.22,0,0,0-19.6-7.894c-15.762,0-29.013,12.854-29.013,28.641s13.251,28.64,29.013,28.64c8.509,0,14.925-2.793,19.945-8.033,5.161-5.17,6.766-12.434,6.766-18.3a25.416,25.416,0,0,0-.42-4.89Zm47.961,23.96c-5.581,0-10.393-4.611-10.393-11.177,0-6.636,4.813-11.177,10.393-11.177s10.391,4.541,10.391,11.177C999.1,242.935,994.289,247.546,988.711,247.546Zm0-29.619a18.442,18.442,0,1,0,18.481,18.441A18.163,18.163,0,0,0,988.711,217.927Zm40.317,29.619c-5.578,0-10.391-4.611-10.391-11.177,0-6.636,4.813-11.177,10.391-11.177s10.391,4.541,10.391,11.177c0,6.567-4.812,11.177-10.391,11.177Zm0-29.619a18.442,18.442,0,1,0,18.482,18.441,18.161,18.161,0,0,0-18.482-18.441Z" transform="translate(-15739.938 -166.249)" fill="#636363"/>
    <path id="Path_18182" data-name="Path 18182" d="M223.861,163.542c-1.453,1.313-2.32,3.5-2.32,6.409V264.58a8.692,8.692,0,0,0,2,6.092l.322.308h0a5.56,5.56,0,0,0,3.825,1.409,9.959,9.959,0,0,0,4.85-1.455l62.837-35.76,21.584-12.285c2.741-1.56,4.28-3.572,4.537-5.622v-.008c-.257-2.054-1.8-4.065-4.537-5.625l-21.586-12.283-62.835-35.76a9.977,9.977,0,0,0-4.859-1.458,5.567,5.567,0,0,0-3.821,1.408Z" transform="translate(-15184.242 -173.176)" fill="#00c1ff"/>
    <path id="Path_18183" data-name="Path 18183" d="M2.44-444.127l-.322-.308a8.691,8.691,0,0,1-2-6.092v-94.629c0-2.907.867-5.1,2.32-6.409l53.636,53.721L2.44-444.127" transform="translate(-14962.816 541.931)" fill="url(#linear-gradient)"/>
    <path id="Path_18184" data-name="Path 18184" d="M18.567-148.744.686-166.657l17.879-17.91,21.586,12.283c2.741,1.56,4.28,3.571,4.537,5.625v.008c-.257,2.05-1.8,4.062-4.537,5.622L18.567-148.744" transform="translate(-14907.432 210.743)" fill="url(#linear-gradient-2)"/>
    <path id="Path_18185" data-name="Path 18185" d="M4.265-227.888A5.561,5.561,0,0,1,.44-229.3h0l53.631-53.718L71.952-265.1,9.115-229.343a9.957,9.957,0,0,1-4.85,1.455" transform="translate(-14960.815 327.103)" fill="url(#linear-gradient-3)"/>
    <path id="Path_18186" data-name="Path 18186" d="M53.826-228.476.19-282.2A5.568,5.568,0,0,1,4.012-283.6a9.975,9.975,0,0,1,4.859,1.458l62.835,35.76-17.879,17.91" transform="translate(-14960.571 272.563)" fill="url(#linear-gradient-4)"/>
    <path id="Path_18187" data-name="Path 18187" d="M4.938-157.243a5.574,5.574,0,0,1-3.827-1.411l0,0-.013-.012-.279-.273-.027-.028.322-.322a5.56,5.56,0,0,0,3.825,1.409,9.957,9.957,0,0,0,4.85-1.455l62.837-35.76.4.4-.408.232L9.786-158.7a10.336,10.336,0,0,1-4.452,1.447q-.2.01-.4.01" transform="translate(-14961.487 257.093)" fill="url(#linear-gradient-5)"/>
    <path id="Path_18188" data-name="Path 18188" d="M2.118-28.581a8.688,8.688,0,0,1-2-6.092v-.632a8.692,8.692,0,0,0,2,6.092l.322.308-.322.323" transform="translate(-14962.816 126.708)" fill="url(#linear-gradient-6)"/>
    <path id="Path_18189" data-name="Path 18189" d="M1.045-75.817l-.4-.4L22.226-88.505c2.741-1.56,4.28-3.572,4.537-5.622a5.376,5.376,0,0,1-.5,2.236,9.3,9.3,0,0,1-4.037,4.019L1.045-75.817" transform="translate(-14889.506 138.22)" fill="url(#linear-gradient-7)"/>
    <path id="Path_18190" data-name="Path 18190" d="M26.756-76.372c-.257-2.055-1.8-4.065-4.537-5.625L.633-94.281l.4-.4h0L22.219-82.629c3.022,1.721,4.535,3.989,4.537,6.257" transform="translate(-14889.499 120.457)" fill="url(#linear-gradient-8)"/>
    <path id="Path_18191" data-name="Path 18191" d="M.115-28.03v-.663c0-.239.006-.473.019-.7v-.01a.03.03,0,0,1,0-.01v-.026a8.269,8.269,0,0,1,1.984-5.32l.316.318c-1.453,1.313-2.32,3.5-2.32,6.41" transform="translate(-14962.816 24.805)" fill="url(#linear-gradient-9)"/>
    <path id="Path_18192" data-name="Path 18192" d="M72.62-157.051,9.785-192.811a9.976,9.976,0,0,0-4.858-1.458,5.568,5.568,0,0,0-3.822,1.408l-.316-.318q.148-.157.308-.3l.012-.01A5.564,5.564,0,0,1,4.9-194.9h.032a9.973,9.973,0,0,1,4.858,1.459l63.239,35.989h0l-.4.4" transform="translate(-14961.486 183.227)" fill="url(#linear-gradient-10)"/>
  </g>
</svg>
