<svg xmlns="http://www.w3.org/2000/svg" width="16" height="16" viewBox="0 0 16 16">
  <g id="home" transform="translate(0 0.025)">
    <path id="Path_35874" data-name="Path 35874" d="M15.709,6.97h0L9.212.483a1.7,1.7,0,0,0-2.424,0L.485,6.777A2.037,2.037,0,0,0,0,8.036,1.6,1.6,0,0,0,.485,9.2a1.607,1.607,0,0,0,1.164.484h.1v4.357a1.944,1.944,0,0,0,1.939,1.936H6.109a.662.662,0,0,0,.679-.678V11.618a.458.458,0,0,1,.485-.484H8.727a.458.458,0,0,1,.485.484V15.3a.662.662,0,0,0,.679.678h2.521a1.944,1.944,0,0,0,1.939-1.936V9.682A1.607,1.607,0,0,0,15.515,9.2,1.785,1.785,0,0,0,16,8.036,1.95,1.95,0,0,0,15.709,6.97ZM8.727,9.682H7.273a1.944,1.944,0,0,0-1.939,1.936v3H3.588a.458.458,0,0,1-.485-.484V9a.662.662,0,0,0-.679-.678H1.648a.257.257,0,0,1-.291-.29c0-.1,0-.194.1-.194l6.3-6.293a.3.3,0,0,1,.388,0l6.4,6.293a.294.294,0,0,1,0,.387h-.873a.662.662,0,0,0-.679.678v5.132a.458.458,0,0,1-.485.484H10.667v-2.9A1.944,1.944,0,0,0,8.727,9.682Z" transform="translate(0 0)" fill="#fff"/>
  </g>
</svg>
