<?xml version="1.0" standalone="no"?>
<!DOCTYPE svg PUBLIC "-//W3C//DTD SVG 20010904//EN"
 "http://www.w3.org/TR/2001/REC-SVG-20010904/DTD/svg10.dtd">
<svg version="1.0" xmlns="http://www.w3.org/2000/svg"
 width="225.000000pt" height="225.000000pt" viewBox="0 0 225.000000 225.000000"
 preserveAspectRatio="xMidYMid meet">

<g transform="translate(0.000000,225.000000) scale(0.100000,-0.100000)"
fill="#ffffff" stroke="none">
<path d="M1035 2050 c-167 -41 -285 -194 -285 -369 0 -180 136 -424 273 -490
164 -79 347 49 442 311 88 240 -4 463 -221 539 -55 19 -152 24 -209 9z"/>
<path d="M710 1209 c-190 -25 -265 -140 -265 -409 0 -127 10 -157 65 -203 40
-34 86 -47 193 -54 93 -6 112 4 58 31 -58 30 -64 111 -13 158 15 14 94 74 177
134 143 105 151 109 200 109 49 0 57 -4 200 -109 83 -60 162 -120 177 -134 51
-47 45 -128 -13 -158 -54 -27 -35 -37 59 -31 106 7 152 20 192 54 57 47 65 75
64 213 -1 240 -61 351 -209 388 -22 6 -75 14 -117 17 -71 7 -78 6 -78 -10 0
-31 -73 -90 -136 -110 -78 -26 -200 -26 -278 0 -62 20 -136 79 -136 108 0 19
-30 20 -140 6z"/>
<path d="M959 775 c-79 -58 -145 -110 -147 -115 -2 -6 111 -10 313 -10 202 0
315 4 313 10 -7 20 -291 220 -313 220 -13 0 -84 -45 -166 -105z"/>
<path d="M890 470 l0 -141 48 3 47 3 0 135 0 135 -47 3 -48 3 0 -141z"/>
<path d="M1080 470 l0 -140 45 0 45 0 0 140 0 140 -45 0 -45 0 0 -140z"/>
<path d="M1264 597 c-2 -7 -3 -69 -2 -138 l3 -124 48 -3 47 -3 0 140 0 141
-45 0 c-28 0 -48 -5 -51 -13z"/>
<path d="M850 270 c0 -20 7 -20 275 -20 268 0 275 0 275 20 0 20 -7 20 -275
20 -268 0 -275 0 -275 -20z"/>
<path d="M790 210 c0 -20 7 -20 335 -20 328 0 335 0 335 20 0 20 -7 20 -335
20 -328 0 -335 0 -335 -20z"/>
</g>
</svg>
