<svg id="Logo" xmlns="http://www.w3.org/2000/svg" width="147.2" height="40.152" viewBox="0 0 147.2 40.152">
  <path id="Path_35857" data-name="Path 35857" d="M8.268,68.366a10.506,10.506,0,0,1-4.26-.812A6.808,6.808,0,0,1,1.1,65.224,6.43,6.43,0,0,1,0,61.529H4.228a3.62,3.62,0,0,0,1.111,2.529,3.961,3.961,0,0,0,2.9,1.027,3.947,3.947,0,0,0,2.537-.751,2.438,2.438,0,0,0,.94-2.008,2.66,2.66,0,0,0-.831-2.054,6.289,6.289,0,0,0-2.209-1.2L5.728,58.1a9.736,9.736,0,0,1-3.869-2.207A4.885,4.885,0,0,1,.529,52.3a5.375,5.375,0,0,1,.924-3.265,6.264,6.264,0,0,1,2.615-2.115A9.175,9.175,0,0,1,7.89,46.17a9.291,9.291,0,0,1,3.869.766,6.3,6.3,0,0,1,2.63,2.146,5.978,5.978,0,0,1,1.018,3.28H11.116a2.907,2.907,0,0,0-.892-2.008,3.214,3.214,0,0,0-2.4-.874,3.477,3.477,0,0,0-2.209.628,2.237,2.237,0,0,0-.892,1.916,2.186,2.186,0,0,0,.69,1.7A5.538,5.538,0,0,0,7.3,54.785q1.191.43,2.725.92A18.773,18.773,0,0,1,13,56.992a6.041,6.041,0,0,1,2.161,1.947,5.474,5.474,0,0,1,.814,3.112,5.913,5.913,0,0,1-.877,3.127,6.264,6.264,0,0,1-2.6,2.315,9.278,9.278,0,0,1-4.229.874Z" transform="translate(0 -39.093)" fill="#fff"/>
  <path id="Path_35858" data-name="Path 35858" d="M126.472,102.544V87.338h3.539l.345,2.054a5.479,5.479,0,0,1,1.988-1.763,6,6,0,0,1,2.867-.659,5.353,5.353,0,0,1,5.106,2.729,5.986,5.986,0,0,1,2.27-1.993,6.7,6.7,0,0,1,3.116-.736,6.016,6.016,0,0,1,4.668,1.778A7.469,7.469,0,0,1,152,93.96v8.584h-4.01V94.328a5.012,5.012,0,0,0-.768-3,2.745,2.745,0,0,0-2.365-1.042,3.283,3.283,0,0,0-2.615,1.165,4.879,4.879,0,0,0-.987,3.25v7.848h-4.01V94.328a4.945,4.945,0,0,0-.783-3,2.823,2.823,0,0,0-2.411-1.042,3.194,3.194,0,0,0-2.584,1.165,4.879,4.879,0,0,0-.987,3.25v7.848H126.47Z" transform="translate(-107.084 -73.639)" fill="#fff"/>
  <path id="Path_35859" data-name="Path 35859" d="M320.7,102.912a7.5,7.5,0,0,1-3.29-.628,4.26,4.26,0,0,1-2.537-3.97,4.153,4.153,0,0,1,1.691-3.434,8.176,8.176,0,0,1,5.074-1.318h3.947v-.368a2.785,2.785,0,0,0-.909-2.3,3.468,3.468,0,0,0-2.255-.736,3.937,3.937,0,0,0-2.131.567,2.445,2.445,0,0,0-1.128,1.671h-3.915a5.287,5.287,0,0,1,1.144-2.882,6.4,6.4,0,0,1,2.552-1.885,8.953,8.953,0,0,1,3.509-.659,7.821,7.821,0,0,1,5.23,1.625,5.707,5.707,0,0,1,1.91,4.6v9.351h-3.414l-.376-2.453a5.454,5.454,0,0,1-5.106,2.821Zm.907-3.066a3.354,3.354,0,0,0,2.678-1.1,5.309,5.309,0,0,0,1.206-2.729h-3.414a3.617,3.617,0,0,0-2.287.567,1.742,1.742,0,0,0-.69,1.395,1.594,1.594,0,0,0,.69,1.38A3.069,3.069,0,0,0,321.6,99.846Z" transform="translate(-266.604 -73.639)" fill="#fff"/>
  <path id="Path_35860" data-name="Path 35860" d="M435.84,102.544V87.338h3.57l.376,2.851a6.422,6.422,0,0,1,2.3-2.345,6.539,6.539,0,0,1,3.431-.874v4.139H444.39a6.512,6.512,0,0,0-2.35.4,3.136,3.136,0,0,0-1.613,1.38,5.385,5.385,0,0,0-.579,2.729v6.929H435.84Z" transform="translate(-369.031 -73.639)" fill="#fff"/>
  <path id="Path_35861" data-name="Path 35861" d="M517.459,82.054a6.125,6.125,0,0,1-3.915-1.165q-1.474-1.163-1.472-4.139V70.128H509.41v-3.28h2.663l.471-4.077h3.539v4.077h4.2v3.28h-4.2v6.653a1.922,1.922,0,0,0,.486,1.518,2.608,2.608,0,0,0,1.675.414h1.942v3.342h-2.725Z" transform="translate(-431.323 -53.148)" fill="#fff"/>
  <path id="Path_35862" data-name="Path 35862" d="M600.53,123.25v-3.28h13.125v3.28Z" transform="translate(-508.476 -101.58)" fill="#fff"/>
  <path id="Path_35863" data-name="Path 35863" d="M670.293,16l-16-16h8l16.043,16Z" transform="translate(-553.995)" fill="#fff"/>
  <path id="Path_35864" data-name="Path 35864" d="M699.76,117.23h8l-11.17,11.17H689.08Z" transform="translate(-583.452 -99.26)" fill="#fff"/>
  <path id="Path_35865" data-name="Path 35865" d="M798.04,28.518l7.318-7.318h7.776L801.875,32.461Z" transform="translate(-675.71 -17.95)" fill="#fff"/>
  <path id="Path_35866" data-name="Path 35866" d="M798.04,131.45c.109-.072,4.22-4.22,4.22-4.22l20.65,20.649h-8.531L798.04,131.45Z" transform="translate(-675.71 -107.727)" fill="#fff"/>
</svg>
