<?xml version="1.0" encoding="utf-8"?>
<!-- Generator: Adobe Illustrator 27.5.0, SVG Export Plug-In . SVG Version: 6.00 Build 0)  -->
<svg version="1.1" id="Logo" xmlns="http://www.w3.org/2000/svg" xmlns:xlink="http://www.w3.org/1999/xlink" x="0px" y="0px"
	 viewBox="0 0 135.7 40.2" style="enable-background:new 0 0 135.7 40.2;" xml:space="preserve">
<style type="text/css">
	.st0Logo{fill:#FFFFFF;}
</style>
<g>
	<path id="Path_35862" class="st0Logo" d="M80.6,21.7v-3.3h13.1v3.3H80.6z"/>
	<path id="Path_35863" class="st0Logo" d="M104.8,16l-16-16h8l16,16H104.8z"/>
	<path id="Path_35864" class="st0Logo" d="M104.8,18h8l-11.2,11.2h-7.5L104.8,18z"/>
	<path id="Path_35865" class="st0Logo" d="M110.9,10.6l7.3-7.3h7.8l-11.3,11.3L110.9,10.6z"/>
	<path id="Path_35866" class="st0Logo" d="M110.9,23.7c0.1-0.1,4.2-4.2,4.2-4.2l20.7,20.6h-8.5L110.9,23.7z"/>
	<path id="Path_35973" class="st0Logo" d="M28.4,13.8c-0.3,0-0.5,0-0.7,0c-0.9,0-1.8,0.3-2.6,0.8c-0.8,0.6-1.3,1.3-1.6,2.2h-0.2v-2.8
		h-3.8v16.7h3.9v-9.8c0-0.7,0.2-1.3,0.5-1.9c0.3-0.5,0.8-1,1.3-1.3c0.6-0.3,1.3-0.5,1.9-0.5c0.3,0,0.7,0,1,0.1
		c0.3,0,0.5,0.1,0.8,0.2v-3.6C28.8,13.9,28.6,13.8,28.4,13.8z M45.3,17.9c-0.6-1.3-1.6-2.3-2.8-3c-1.3-0.7-2.8-1.1-4.2-1.1
		c-1.5,0-3,0.3-4.2,1.1c-1.2,0.7-2.2,1.8-2.8,3c-0.7,1.4-1,3-1,4.5c0,1.6,0.3,3.1,1,4.5c0.6,1.3,1.6,2.3,2.8,3
		c1.3,0.7,2.8,1.1,4.2,1.1c1.5,0,3-0.3,4.2-1.1c1.2-0.7,2.2-1.8,2.8-3c0.7-1.4,1-3,1-4.5C46.3,20.9,46,19.3,45.3,17.9z M41.8,25.2
		c-0.3,0.8-0.7,1.4-1.3,2c-0.6,0.5-1.4,0.8-2.2,0.7c-0.8,0-1.6-0.2-2.3-0.7c-0.6-0.5-1.1-1.2-1.3-2c-0.3-0.9-0.4-1.8-0.4-2.8
		c0-0.9,0.1-1.9,0.4-2.8c0.3-0.8,0.7-1.5,1.3-2c0.6-0.5,1.4-0.8,2.3-0.7c0.8,0,1.6,0.2,2.2,0.7c0.6,0.5,1.1,1.2,1.3,2
		c0.3,0.9,0.4,1.8,0.4,2.8C42.3,23.4,42.2,24.3,41.8,25.2z M63.9,17.9c-0.6-1.3-1.6-2.3-2.8-3c-1.3-0.7-2.8-1.1-4.2-1.1
		c-1.5,0-3,0.3-4.2,1.1c-1.2,0.7-2.2,1.8-2.8,3c-0.7,1.4-1,3-1,4.5c0,1.6,0.3,3.1,1,4.5c0.6,1.3,1.6,2.3,2.8,3
		c1.3,0.7,2.8,1.1,4.2,1.1c1.5,0,3-0.3,4.2-1.1c1.2-0.7,2.2-1.8,2.8-3c0.7-1.4,1-3,1-4.5C64.9,20.9,64.6,19.3,63.9,17.9z M60.5,25.2
		c-0.3,0.8-0.7,1.4-1.3,2c-0.6,0.5-1.4,0.8-2.2,0.7c-0.8,0-1.6-0.2-2.3-0.7c-0.6-0.5-1.1-1.2-1.3-2c-0.3-0.9-0.4-1.8-0.4-2.8
		c0-0.9,0.1-1.9,0.4-2.8c0.3-0.8,0.7-1.5,1.3-2c0.6-0.5,1.4-0.8,2.3-0.7c0.8,0,1.6,0.2,2.2,0.7c0.6,0.5,1.1,1.2,1.3,2
		c0.3,0.9,0.4,1.8,0.4,2.8C60.9,23.4,60.8,24.3,60.5,25.2z"/>
	<path class="st0Logo" d="M73.2,13.1v1.3h3.5v3h-3.5v13.7h-4V17.4h-2.5v-3h2.5v-1.6c0-1,0.2-1.9,0.7-2.8c0.4-0.7,1.1-1.3,1.9-1.7
		c0.8-0.4,1.7-0.6,2.6-0.6c0.6,0,1.2,0.1,1.8,0.2c0.4,0.1,0.8,0.2,1.2,0.3l-0.8,3c-0.2-0.1-0.4-0.1-0.6-0.2
		c-0.3-0.1-0.6-0.1-0.8-0.1c-0.6-0.1-1.1,0.1-1.6,0.5C73.4,12,73.2,12.5,73.2,13.1z"/>
	<path class="st0Logo" d="M15.3,12.4c-0.6-1.1-1.5-2-2.6-2.6c-1.3-0.7-2.8-1-4.3-1H0v22.3h4v-7.5h4.3c1.5,0.1,3-0.3,4.3-0.9
		c1.1-0.6,2.1-1.5,2.7-2.6c0.6-1.2,0.9-2.5,0.9-3.8C16.2,14.9,15.9,13.6,15.3,12.4z M11.6,18.3c-0.3,0.6-0.8,1.1-1.4,1.4
		c-0.8,0.4-1.6,0.6-2.5,0.5H4v-8.1h3.7c0.9,0,1.7,0.1,2.5,0.5c0.6,0.3,1.1,0.8,1.4,1.4c0.3,0.6,0.5,1.4,0.5,2.1
		C12.1,16.9,12,17.6,11.6,18.3z"/>
</g>
</svg>
