<svg xmlns="http://www.w3.org/2000/svg" id="task-complete" width="24" height="26" viewBox="0 0 24 26">
    <defs>
       
    </defs>
    <g id="Layer_1_22_">
        <g id="Group_714">
            <path id="Path_6422" d="M6.539 26.921V6.419h15.89v16.6l1.739-2.344V5.939a1.354 1.354 0 0 0-1.33-1.419H6.13A1.354 1.354 0 0 0 4.8 5.939v21.4a1.354 1.354 0 0 0 1.33 1.419h11.679L15.9 26.921z" class="merkle-proof-1" transform="translate(-4.8 -4.52)"/>
            <path id="Path_6423" d="M24.3 14.531a.683.683 0 0 0-.845-.056l-5.974 4.94-4-2.358a.653.653 0 0 0-.9.225.688.688 0 0 0 .056.73l4.339 6.063a.673.673 0 0 0 .507.281.592.592 0 0 0 .507-.281l6.368-8.7a.612.612 0 0 0-.058-.844z" class="merkle-proof-1" transform="translate(-.504 1.645)"/>
            <path id="Path_6424" d="M16.557 7.76H9.043a1.123 1.123 0 0 0-1.243 1 1.123 1.123 0 0 0 1.243 1h7.514a1.123 1.123 0 0 0 1.243-1 1.153 1.153 0 0 0-1.243-1z" class="merkle-proof-1" transform="translate(-3.8 -2.76)"/>
            <path id="Path_6425" d="M16.557 10.56H9.043a1.123 1.123 0 0 0-1.243 1 1.123 1.123 0 0 0 1.243 1h7.514a1.123 1.123 0 0 0 1.243-1 1.123 1.123 0 0 0-1.243-1z" class="merkle-proof-1" transform="translate(-3.8 -1.229)"/>
            <path id="Path_6426" d="M16.557 13.32H9.043a1.123 1.123 0 0 0-1.243 1 1.123 1.123 0 0 0 1.243 1h7.514a1.123 1.123 0 0 0 1.243-1 1.123 1.123 0 0 0-1.243-1z" class="merkle-proof-1" transform="translate(-3.8 .279)"/>
        </g>
    </g>
</svg>
