<svg xmlns="http://www.w3.org/2000/svg" width="336" height="220" viewBox="0 0 336 220">
  <g id="Group_67129" data-name="Group 67129" transform="translate(-352 -158)">
    <path id="Rectangle_31114" data-name="Rectangle 31114" d="M10,0H326a10,10,0,0,1,10,10V220a0,0,0,0,1,0,0H0a0,0,0,0,1,0,0V10A10,10,0,0,1,10,0Z" transform="translate(352 158)" fill="#eaebec"/>
    <g id="_x31_43" transform="translate(472.03 214.79)">
      <path id="Path_35955" data-name="Path 35955" d="M73.142,38.893,51.647,47.72A5.961,5.961,0,0,1,48.186,49.3l-15.87,1.572a2.115,2.115,0,0,1-.214.01,2.144,2.144,0,0,1-.209-4.278l15.869-1.572a2.191,2.191,0,0,0-.428-4.322l-8.741.866a20.615,20.615,0,0,1-11.728-2.353,16.3,16.3,0,0,0-9.289-1.87l-2.878.285,2.084,21.031a20.07,20.07,0,0,1,10.251,1.714l2.873,1.3a15.489,15.489,0,0,0,12.741.13L75.333,44.972A3.355,3.355,0,0,0,76.88,40.33a2.808,2.808,0,0,0-3.738-1.437Z" transform="translate(7.695 38.659)" fill="#d3d5d7"/>
      <path id="Path_35956" data-name="Path 35956" d="M15.908,35.983l-7.938.66,3.635,28.37,7.11-.706a1.854,1.854,0,0,0,1.662-2.029L17.937,37.646a1.854,1.854,0,0,0-2.029-1.662Z" transform="translate(0 37.172)" fill="#d3d5d7"/>
      <path id="Path_35957" data-name="Path 35957" d="M46.323,74.857a2.159,2.159,0,0,0,2.037-.086c21.333-12.5,31.131-33.3,30.509-55.144a45.938,45.938,0,0,0-.493-5.639,2.147,2.147,0,0,0-2.423-1.758c-10.6,1.563-24.877-5.688-27.508-8.319a2.136,2.136,0,0,0-2.723.129c-8.793,7.975-21.858,9.845-26.95,8.147a2.116,2.116,0,0,0-1.672.343,2.175,2.175,0,0,0-.879,1.436c-4.245,28.709,8.9,46.761,30.1,60.89Zm1.372-58.789a55.268,55.268,0,0,0,20.454,6.9c-.322,15.879-7.462,30.413-20.99,39.836-13.009-9.184-21.119-22.9-20.947-39.622a43.648,43.648,0,0,0,21.483-7.118Z" transform="translate(8.528 0)" fill="#d3d5d7"/>
      <path id="Path_35958" data-name="Path 35958" d="M33.767,32.91a2.144,2.144,0,0,0,1.714-.856L44.837,19.6a2.144,2.144,0,1,0-3.428-2.575L33.616,27.4,29.76,23.129A2.144,2.144,0,1,0,26.577,26l5.6,6.2a2.143,2.143,0,0,0,1.591.707Z" transform="translate(20.654 14.512)" fill="#d3d5d7"/>
    </g>
  </g>
</svg>
