<svg xmlns="http://www.w3.org/2000/svg" width="16" height="18.562" viewBox="0 0 16 18.562">
  <g id="profile" transform="translate(-3.6 -1.9)">
    <g id="Path_35886" transform="translate(7.338 1.9)">
      <path id="Path_35888" data-name="Path 35888" d="M11.8,1.9A4.439,4.439,0,0,0,7.4,6.3a4.4,4.4,0,0,0,8.8,0A4.439,4.439,0,0,0,11.8,1.9Zm0,7.3a2.9,2.9,0,1,1,2.9-2.9A2.9,2.9,0,0,1,11.8,9.2Z" transform="translate(-7.4 -1.9)" fill="#121e2a"/>
    </g>
    <g id="Path_35887" transform="translate(3.6 10.353)">
      <path id="Path_35889" data-name="Path 35889" d="M16.107,10.6a.751.751,0,0,0-.893.1,5.507,5.507,0,0,1-7.048,0,.608.608,0,0,0-.695-.1h0l-.2.1A8.072,8.072,0,0,0,3.6,17.5a3.1,3.1,0,0,0,3.077,3.1H16.5a3.1,3.1,0,0,0,3.077-3.1A7.522,7.522,0,0,0,16.107,10.6Zm1.687,7.9A1.589,1.589,0,0,1,16.7,19H6.776a1.574,1.574,0,0,1-1.588-1.6A6.557,6.557,0,0,1,7.67,12.2a6.975,6.975,0,0,0,8.04,0,6.276,6.276,0,0,1,2.482,5.2A1.2,1.2,0,0,1,17.794,18.5Z" transform="translate(-3.6 -10.491)" fill="#121e2a"/>
    </g>
  </g>
</svg>
