<svg viewBox="0 0 48 48" height="48" width="48" preserveAspectRatio="xMidYMid meet" class="" version="1.1"><title>refresh-l-light</title><desc>Created with Sketch.</desc><defs></defs><g stroke="none" stroke-width="1" fill="none" fill-rule="evenodd"><g id="ic_refresh_black_24px" fill="currentColor" fill-rule="nonzero"><path d="M35.3,12.7 C32.4,9.8 28.42,8 24,8 C15.16,8 8.02,15.16 8.02,24 C8.02,32.84 15.16,40 24,40 C31.46,40 37.68,34.9 39.46,28 L35.3,28 C33.66,32.66 29.22,36 24,36 C17.38,36 12,30.62 12,24 C12,17.38 17.38,12 24,12 C27.32,12 30.28,13.38 32.44,15.56 L26,22 L40,22 L40,8 L35.3,12.7 Z" id="Shape"></path></g></g></svg>