<svg xmlns="http://www.w3.org/2000/svg" width="79.999" height="80.001" viewBox="0 0 79.999 80.001">
  <g id="repair-tool" transform="translate(-2 -1.999)" opacity="0.3">
    <path id="XMLID_1644_" d="M35.571,82a10.011,10.011,0,0,1-10-10V34.478A18.551,18.551,0,0,1,27.126,2.313a2.857,2.857,0,0,1,4.16,2.546V17.21l4.286,1.714,4.286-1.714V4.858a2.857,2.857,0,0,1,4.16-2.546,18.553,18.553,0,0,1,1.554,32.168V72a10.011,10.011,0,0,1-10,10Zm-10-71.239a12.844,12.844,0,0,0,4.16,19.523,2.857,2.857,0,0,1,1.554,2.543V72a4.286,4.286,0,0,0,8.571,0V32.826a2.857,2.857,0,0,1,1.554-2.543,12.841,12.841,0,0,0,4.16-19.52v8.38A2.863,2.863,0,0,1,43.777,21.8l-7.143,2.857a2.841,2.841,0,0,1-2.123,0L27.368,21.8a2.862,2.862,0,0,1-1.8-2.654Z" transform="translate(27.856 0)" fill="#fff"/>
    <path id="Path_35897" data-name="Path 35897" d="M45.068,82H38.934a5.738,5.738,0,0,1-5.7-5.274l-.36-4.671A31.172,31.172,0,0,1,27.205,69.7l-3.56,3.049a5.738,5.738,0,0,1-7.757-.294l-4.343-4.346a5.742,5.742,0,0,1-.3-7.76L14.3,56.791a31.173,31.173,0,0,1-2.354-5.671l-4.668-.357A5.733,5.733,0,0,1,2,45.068V38.931a5.738,5.738,0,0,1,5.277-5.7l4.668-.357A31.005,31.005,0,0,1,14.3,27.205l-3.051-3.563a5.739,5.739,0,0,1,.3-7.76l4.337-4.34a5.739,5.739,0,0,1,7.76-.3l3.56,3.049a31.172,31.172,0,0,1,5.671-2.354l.36-4.671A5.736,5.736,0,0,1,38.931,2H42a2.857,2.857,0,1,1,0,5.714H38.931L38.417,14.4a2.858,2.858,0,0,1-2.206,2.563A25.43,25.43,0,0,0,28.4,20.208a2.842,2.842,0,0,1-3.374-.254l-5.1-4.369-4.337,4.343,4.369,5.1a2.854,2.854,0,0,1,.251,3.374,25.559,25.559,0,0,0-3.243,7.811A2.854,2.854,0,0,1,14.4,38.417l-6.686.514v6.137l6.686.514a2.858,2.858,0,0,1,2.566,2.206A25.43,25.43,0,0,0,20.208,55.6a2.859,2.859,0,0,1-.251,3.374l-4.369,5.1,4.34,4.343,5.1-4.368A2.851,2.851,0,0,1,28.4,63.79a25.559,25.559,0,0,0,7.811,3.243A2.857,2.857,0,0,1,38.417,69.6l.514,6.688h6.134a2.857,2.857,0,0,1,5.7.44A5.737,5.737,0,0,1,45.068,82Z" transform="translate(0 0.001)" fill="#fff"/>
    <path id="Path_35898" data-name="Path 35898" d="M9,28.848A19.925,19.925,0,0,1,25.671,9.126a2.856,2.856,0,0,1,.943,5.634,14.29,14.29,0,1,0,7.148,27.562A2.856,2.856,0,1,1,35.671,47.7,20.023,20.023,0,0,1,9,28.848Z" transform="translate(13 13.153)" fill="#fff"/>
  </g>
</svg>
