<svg xmlns="http://www.w3.org/2000/svg" width="16" height="16" viewBox="0 0 16 16">
  <path id="search_3_" data-name="search (3)" d="M15.788,14.62l-3.2-3.169a6.932,6.932,0,0,0,1.538-4.392A7.071,7.071,0,0,0,7.062,0,6.981,6.981,0,0,0,2.072,2.071,6.921,6.921,0,0,0,0,7.059a6.921,6.921,0,0,0,2.072,4.988,7.112,7.112,0,0,0,4.991,2.071,7,7,0,0,0,4.394-1.537l3.2,3.2a.757.757,0,0,0,.565.22.786.786,0,0,0,.565-.251A.859.859,0,0,0,15.788,14.62ZM7.062,1.6h0a5.464,5.464,0,0,1,5.462,5.459,5.478,5.478,0,0,1-1.6,3.859,5.458,5.458,0,0,1-7.721,0A5.6,5.6,0,0,1,1.569,7.059,5.382,5.382,0,0,1,3.17,3.2,5.46,5.46,0,0,1,7.062,1.6Z" fill="#121e2a" opacity="0.5"/>
</svg>
