<svg xmlns="http://www.w3.org/2000/svg" width="16" height="15.126" viewBox="0 0 16 15.126">
  <g id="Service_Catalog" transform="translate(-37.9 -334.4)">
    <g id="path1947" transform="translate(37.9 334.4)">
      <path id="Path_35880" data-name="Path 35880" d="M53.424,335a1.965,1.965,0,0,0-1.393-.6,2.342,2.342,0,0,0-.8.2l-5.075,2.289h-.4L40.686,334.6a1.875,1.875,0,0,0-.8-.2h0a2,2,0,0,0-1.99,1.99v8.757a1.966,1.966,0,0,0,1.194,1.791l6.07,2.488a1.693,1.693,0,0,0,.7.1h0a1.693,1.693,0,0,0,.7-.1l6.07-2.488a1.822,1.822,0,0,0,1.194-1.791V336.39A1.186,1.186,0,0,0,53.424,335Zm-.8,10.051a.547.547,0,0,1-.3.5l-6.07,2.488h-.4l-6.07-2.488a.547.547,0,0,1-.3-.5v-8.757a.47.47,0,0,1,.5-.5h.2l5.075,2.289a1.692,1.692,0,0,0,1.592,0l5.075-2.289h.2a.47.47,0,0,1,.5.5Z" transform="translate(-37.9 -334.4)" fill="#121e2a"/>
    </g>
    <g id="path1951" transform="translate(47.501 343.568)">
      <path id="Path_35881" data-name="Path 35881" d="M51.5,344.6a.781.781,0,0,1-.4.4l-2.5,1h-.3a.842.842,0,0,1-.7-.4c-.1-.4,0-.8.4-.9l2.5-1a.608.608,0,0,1,.9.4C51.6,344.2,51.6,344.4,51.5,344.6Z" transform="translate(-47.564 -343.622)" fill="#121e2a"/>
    </g>
    <g id="path1955" transform="translate(40.309 337.507)">
      <path id="Path_35882" data-name="Path 35882" d="M44.3,339.7h0c-.2.3-.4.5-.7.5a.367.367,0,0,1-.3-.1L40.8,339a.781.781,0,0,1-.4-.4.638.638,0,0,1,0-.6.781.781,0,0,1,.4-.4.446.446,0,0,1,.5,0l2.5,1.1A.781.781,0,0,1,44.3,339.7Z" transform="translate(-40.325 -337.525)" fill="#121e2a"/>
    </g>
    <g id="path1959" transform="translate(47.622 337.576)">
      <path id="Path_35883" data-name="Path 35883" d="M51.3,337.7c-.1-.1-.2-.1-.4-.1a.367.367,0,0,0-.3.1l-2.5,1.1a.67.67,0,0,0-.4.7v2.8a.713.713,0,0,0,.3.6.6.6,0,0,0,.4.1.367.367,0,0,0,.3-.1l2.5-1a.752.752,0,0,0,.5-.7v-2.9A.918.918,0,0,0,51.3,337.7Zm-1.1,1.7v1.3l-1,.4v-1.2Z" transform="translate(-47.7 -337.6)" fill="#121e2a"/>
    </g>
    <g id="path1963" transform="translate(40.384 340.388)">
      <path id="Path_35884" data-name="Path 35884" d="M43.9,341.5l-2.5-1a.616.616,0,0,0-.7.1.713.713,0,0,0-.3.6v3.1a.752.752,0,0,0,.5.7l2.5,1h.3a.6.6,0,0,0,.4-.1.713.713,0,0,0,.3-.6v-3.1A.752.752,0,0,0,43.9,341.5Zm-1,1.1v1.6l-1-.4v-1.6Z" transform="translate(-40.4 -340.434)" fill="#121e2a"/>
    </g>
    <g id="path1967" transform="translate(45.26 339.351)">
      <path id="Path_35885" data-name="Path 35885" d="M46.7,340.1v6.2a.7.7,0,1,1-1.4,0v-6.2a.7.7,0,1,1,1.4,0Z" transform="translate(-45.3 -339.4)" fill="#121e2a"/>
    </g>
  </g>
</svg>
