<svg xmlns="http://www.w3.org/2000/svg" width="12.176" height="15.125" viewBox="0 0 12.176 15.125">
  <g id="_x31_43" transform="translate(-7.971 -3.482)">
    <path id="Path_35955" data-name="Path 35955" d="M23.654,37.522,20.36,38.875a.914.914,0,0,1-.53.242l-2.432.241-.033,0a.329.329,0,0,1-.032-.656l2.432-.241A.336.336,0,0,0,19.7,37.8l-1.34.133a3.159,3.159,0,0,1-1.8-.361,2.5,2.5,0,0,0-1.423-.287l-.441.044.319,3.223a3.076,3.076,0,0,1,1.571.263l.44.2a2.374,2.374,0,0,0,1.952.02l5.009-2.581a.514.514,0,0,0,.237-.711.43.43,0,0,0-.573-.22Z" transform="translate(-4.517 -22.69)" fill="#fff"/>
    <path id="Path_35956" data-name="Path 35956" d="M9.187,35.976l-1.216.1.557,4.347,1.09-.108a.284.284,0,0,0,.255-.311L9.5,36.23a.284.284,0,0,0-.311-.255Z" transform="translate(0 -21.817)" fill="#fff"/>
    <path id="Path_35957" data-name="Path 35957" d="M20.16,14.42a.331.331,0,0,0,.312-.013,9.223,9.223,0,0,0,4.675-8.45,7.039,7.039,0,0,0-.076-.864.329.329,0,0,0-.371-.269,6.678,6.678,0,0,1-4.215-1.275.327.327,0,0,0-.417.02,5.053,5.053,0,0,1-4.13,1.249.324.324,0,0,0-.256.053.333.333,0,0,0-.135.22c-.651,4.4,1.364,7.166,4.613,9.331Zm.21-9.009A8.469,8.469,0,0,0,23.5,6.469a7.471,7.471,0,0,1-3.217,6.1A7.2,7.2,0,0,1,17.078,6.5,6.689,6.689,0,0,0,20.37,5.411Z" transform="translate(-5.005)" fill="#fff"/>
    <path id="Path_35958" data-name="Path 35958" d="M27.211,18.733a.329.329,0,0,0,.263-.131l1.434-1.909a.328.328,0,1,0-.525-.395l-1.194,1.59-.591-.654a.329.329,0,0,0-.488.441l.858.95a.328.328,0,0,0,.244.108Z" transform="translate(-12.122 -8.517)" fill="#fff"/>
  </g>
</svg>
