<?xml version="1.0" encoding="utf-8"?> <!-- Generator:Adobe Illustrator 23.0.1,
SVG Export Plug-In . SVG Version:6.00 Build 0) --> <svg version="1.1" id="Layer_1" xmlns="http://www.w3.org/2000/svg" xmlns:xlink="http://www.w3.org/1999/xlink" x="0px" y="0px" viewBox="0 0 105 30" style="enable-background:new 0 0 105 30;" xml:space="preserve" > <style type="text/css" > .st0SSLogo {
    fill: #173346;
}
.st1SSLogo {
    enable-background: new;
}

</style> <g id="XMLID_85_"> <g id="XMLID_4808_"> <g> <g id="XMLID_81_"> <g id="XMLID_87_"> <g id="XMLID_88_"> <g id="XMLID_91_"> <g id="XMLID_103_"> <g> <path class="st0SSLogo" d="M-0.2,11.7l6.4,7.5l9.7-17L-0.2,11.7z M13.5,4.7l-3.7,6.5l-7.6,0.2L13.5,4.7z M6.1,17.6l-4.6-5.4 L9.3,12L6.1,17.6z"/> </g> </g> </g> <g id="XMLID_89_"> <g id="XMLID_90_"> <g> <path class="st0SSLogo" d="M11.8,11.3L1.9,28.3l16.2-9.4L11.8,11.3z M11.9,12.9l4.6,5.5l-7.9,0.3L11.9,12.9z M4.3,25.8L8,19.6 l7.6-0.3L4.3,25.8z"/> </g> </g> </g> </g> </g> </g> </g> </g> <g id="XMLID_4805_"> <g id="XMLID_17_" class="st1SSLogo"> <path class="st0SSLogo" d="M26.6,12.4c-0.1-0.8-0.8-1.2-2-1.2s-1.8,0.4-1.8,1.1c0,0.3,0.1,0.6,0.4,0.7c0.3,0.2,0.6,0.3,1,0.4 c0.4,0.1,0.8,0.2,1.3,0.3c0.5,0.1,0.9,0.2,1.3,0.4c0.4,0.2,0.7,0.4,1,0.7c0.3,0.3,0.4,0.7,0.4,1.2c0,0.8-0.3,1.3-0.9,1.7 c-0.6,0.4-1.4,0.6-2.3,0.6c-1,0-1.9-0.3-2.5-0.8c-0.6-0.5-0.9-1.1-0.9-1.8h1.2c0.1,0.7,0.5,1.2,1.2,1.5c0.3,0.1,0.5,0.1,0.8,0.1 c0.3,0,0.5,0,0.7,0c0.2,0,0.5-0.1,0.7-0.2c0.5-0.2,0.8-0.5,0.8-1c0-0.3-0.1-0.6-0.4-0.7c-0.3-0.2-0.6-0.3-1-0.4 c-0.4-0.1-0.8-0.2-1.3-0.3c-0.5-0.1-0.9-0.2-1.3-0.4c-0.4-0.2-0.7-0.4-1-0.6c-0.3-0.3-0.4-0.6-0.4-1.1c0-0.7,0.3-1.3,0.8-1.7 c0.5-0.4,1.3-0.6,2.3-0.6c1,0,1.7,0.2,2.3,0.7c0.5,0.4,0.7,0.9,0.8,1.5H26.6z"/> <path class="st0SSLogo" d="M30.8,11.5c0.5-0.9,1.3-1.3,2.4-1.3c0.5,0,1,0.1,1.4,0.4c0.4,0.3,0.8,0.7,1,1.2c0.4-0.7,0.9-1.1,1.7-1.4 c0.3-0.1,0.6-0.2,1-0.2c0.4,0,0.7,0.1,1.1,0.2c0.4,0.2,0.7,0.4,0.9,0.6c0.6,0.6,0.9,1.4,0.9,2.3v4.7H40v-4.7 c0-0.6-0.2-1.2-0.5-1.6c-0.4-0.4-0.8-0.6-1.4-0.6c-0.6,0-1.1,0.2-1.5,0.6c-0.4,0.4-0.6,0.9-0.6,1.6v4.7h-1.2v-4.7 c0-0.6-0.2-1.2-0.5-1.6c-0.4-0.4-0.8-0.6-1.4-0.6c-0.6,0-1.1,0.2-1.5,0.6c-0.4,0.4-0.6,0.9-0.6,1.6v4.7h-1.2v-7.8h1.2V11.5z"/> <path class="st0SSLogo" d="M49.3,16.8c-0.6,0.9-1.6,1.4-2.8,1.4c-1.1,0-2-0.4-2.8-1.2c-0.7-0.8-1-1.7-1-2.9s0.3-2.1,1-2.9 c0.7-0.8,1.7-1.2,2.8-1.2c1.2,0,2.1,0.5,2.7,1.4v-1.3h1.2v7.8h-1.2V16.8z M46.6,17.2c0.8,0,1.5-0.3,2-0.9 c0.5-0.6,0.7-1.3,0.7-2.1c0-0.8-0.2-1.5-0.7-2.1c-0.5-0.6-1.2-0.9-2-0.9c-0.8,0-1.5,0.3-2,0.9c-0.5,0.6-0.7,1.3-0.7,2.1 c0,0.8,0.2,1.5,0.7,2.1C45.1,16.9,45.8,17.2,46.6,17.2z"/> <path class="st0SSLogo" d="M56.6,10.1v1.2h-0.1c-0.8,0-1.5,0.3-2.1,1c-0.5,0.6-0.8,1.4-0.8,2.3v3.4h-1.2v-7.8h1.2v1.9 c0.2-0.8,0.8-1.4,1.6-1.8C55.6,10.2,56,10.1,56.6,10.1L56.6,10.1z"/> <path class="st0SSLogo" d="M58.7,18.1v-6.8h-1.6v-1h1.6V7.5h1.2v2.8h1.8v1h-1.8v6.8H58.7z"/> <path class="st0SSLogo" d="M64.4,9.3c-0.2,0.2-0.3,0.4-0.4,0.6c-0.1,0.2-0.1,0.4-0.1,0.7s0.1,0.5,0.3,0.6c0.2,0.2,0.5,0.4,0.8,0.5 c0.3,0.1,0.7,0.3,1.1,0.4c0.4,0.1,0.9,0.2,1.3,0.3c0.4,0.1,0.9,0.2,1.3,0.4s0.8,0.3,1.1,0.5c0.7,0.5,1.1,1.1,1.1,1.9 c0,1-0.4,1.7-1.1,2.2c-0.7,0.5-1.7,0.8-3,0.8c-1.5,0-2.6-0.3-3.3-0.9c-0.7-0.5-1.1-1.3-1.2-2.3h1.2c0,0.7,0.4,1.3,1,1.6 c0.6,0.3,1.3,0.5,2.2,0.5c1.9,0,2.9-0.6,2.9-1.8c0-0.4-0.2-0.7-0.5-1c-0.3-0.2-0.8-0.4-1.3-0.6c-0.5-0.2-1.1-0.3-1.7-0.4 c-0.6-0.1-1.2-0.3-1.7-0.5c-0.5-0.2-1-0.5-1.3-0.8c-0.3-0.3-0.5-0.8-0.5-1.4c0-0.8,0.3-1.5,1-2.1s1.6-0.8,2.9-0.8 c1.3,0,2.3,0.3,3.1,0.9c0.7,0.5,1,1.2,1,2.1h-1.2c-0.1-0.9-0.7-1.4-1.7-1.7c-0.4-0.1-0.8-0.2-1.3-0.2s-1,0.1-1.3,0.2 C64.9,9,64.6,9.2,64.4,9.3z"/> <path class="st0SSLogo" d="M76.1,17.2c1.1,0,1.8-0.4,2.3-1.3h1.3c-0.3,0.7-0.7,1.3-1.3,1.7c-0.6,0.4-1.3,0.7-2.3,0.7 c-1.2,0-2.1-0.4-2.9-1.2c-0.7-0.8-1.1-1.7-1.1-2.9c0-1.2,0.3-2.1,1-2.9c0.7-0.8,1.7-1.2,2.8-1.2s2.1,0.4,2.8,1.2 c0.7,0.8,1,1.7,1,2.9v0.5h-6.6c0.1,0.7,0.4,1.3,0.9,1.8C74.7,16.9,75.3,17.2,76.1,17.2z M76,11.2c-0.7,0-1.3,0.2-1.8,0.7 c-0.5,0.4-0.7,1-0.8,1.7h5.3c-0.1-0.7-0.4-1.2-0.8-1.7C77.3,11.4,76.7,11.2,76,11.2z"/> <path class="st0SSLogo" d="M82.5,10.3v1.2c0.3-0.4,0.6-0.7,1-1c0.4-0.3,0.9-0.4,1.4-0.4s1,0.1,1.3,0.2s0.7,0.4,1,0.7 c0.6,0.6,1,1.5,1,2.5v4.6h-1.2v-4.5c0-0.7-0.2-1.3-0.6-1.7s-0.9-0.6-1.6-0.6c-0.7,0-1.2,0.2-1.7,0.7c-0.5,0.4-0.7,1-0.7,1.7v4.5 h-1.2v-7.8H82.5z"/> <path class="st0SSLogo" d="M94.8,12.4c-0.1-0.8-0.8-1.2-2-1.2S91,11.5,91,12.3c0,0.3,0.1,0.6,0.4,0.7c0.3,0.2,0.6,0.3,1,0.4 c0.4,0.1,0.8,0.2,1.3,0.3s0.9,0.2,1.3,0.4c0.4,0.2,0.7,0.4,1,0.7c0.3,0.3,0.4,0.7,0.4,1.2c0,0.8-0.3,1.3-0.9,1.7 C94.8,18,94,18.2,93,18.2c-1,0-1.9-0.3-2.5-0.8c-0.6-0.5-0.9-1.1-0.9-1.8h1.2c0.1,0.7,0.5,1.2,1.2,1.5c0.3,0.1,0.5,0.1,0.8,0.1 s0.5,0,0.7,0c0.2,0,0.5-0.1,0.7-0.2c0.5-0.2,0.8-0.5,0.8-1c0-0.3-0.1-0.6-0.4-0.7c-0.3-0.2-0.6-0.3-1-0.4 c-0.4-0.1-0.8-0.2-1.3-0.3c-0.5-0.1-0.9-0.2-1.3-0.4c-0.4-0.2-0.7-0.4-1-0.6c-0.3-0.3-0.4-0.6-0.4-1.1c0-0.7,0.3-1.3,0.8-1.7 c0.5-0.4,1.3-0.6,2.3-0.6c1,0,1.7,0.2,2.3,0.7c0.5,0.4,0.7,0.9,0.8,1.5H94.8z"/> <path class="st0SSLogo" d="M101.2,17.2c1.1,0,1.8-0.4,2.3-1.3h1.3c-0.3,0.7-0.7,1.3-1.3,1.7c-0.6,0.4-1.3,0.7-2.3,0.7 c-1.2,0-2.1-0.4-2.9-1.2c-0.7-0.8-1.1-1.7-1.1-2.9c0-1.2,0.3-2.1,1-2.9c0.7-0.8,1.7-1.2,2.8-1.2s2.1,0.4,2.8,1.2 c0.7,0.8,1,1.7,1,2.9v0.5h-6.6c0.1,0.7,0.4,1.3,0.9,1.8C99.8,16.9,100.4,17.2,101.2,17.2z M101.1,11.2c-0.7,0-1.3,0.2-1.8,0.7 c-0.5,0.4-0.7,1-0.8,1.7h5.3c-0.1-0.7-0.4-1.2-0.8-1.7C102.4,11.4,101.8,11.2,101.1,11.2z"/> </g> </g> </g> </svg>
