<svg xmlns="http://www.w3.org/2000/svg" width="64" height="62.544" viewBox="0 0 64 62.544">
    <defs>
        <style>
            .verifyCertificate-1{fill:#395aff}.cls-2{fill:#fff}
        </style>
    </defs>
    <g id="Group_3601" transform="translate(0 -.001)">
        <path id="Path_7818" d="M82.834 58.1a24.738 24.738 0 1 0 24.738 24.738A24.766 24.766 0 0 0 82.834 58.1z" class="verifyCertificate-1" transform="translate(-51.096 -51.096)"/>
        <g id="Group_22814">
            <path id="Path_7819" d="M62.292 41.392A8.167 8.167 0 0 0 64 37.1a8.167 8.167 0 0 0-1.708-4.3 8.3 8.3 0 0 1-1.2-2.333 8.591 8.591 0 0 1 .065-2.73 7.928 7.928 0 0 0-.317-4.509 8.124 8.124 0 0 0-3.374-3.091 8.454 8.454 0 0 1-2.14-1.613 8.482 8.482 0 0 1-1.11-2.456 8.105 8.105 0 0 0-2.26-3.954 8.106 8.106 0 0 0-4.347-1.319 8.569 8.569 0 0 1-2.661-.541 8.408 8.408 0 0 1-2.032-1.71 8.141 8.141 0 0 0-3.796-2.609 7.926 7.926 0 0 0-4.434.7A8.674 8.674 0 0 1 32 7.308a8.673 8.673 0 0 1-2.686-.678 7.921 7.921 0 0 0-4.434-.7 8.144 8.144 0 0 0-3.792 2.607 8.4 8.4 0 0 1-2.032 1.71 8.57 8.57 0 0 1-2.661.541 8.106 8.106 0 0 0-4.347 1.319 8.105 8.105 0 0 0-2.259 3.954 8.473 8.473 0 0 1-1.11 2.457 8.454 8.454 0 0 1-2.14 1.613 8.122 8.122 0 0 0-3.374 3.091 7.928 7.928 0 0 0-.317 4.509 8.588 8.588 0 0 1 .065 2.73 8.3 8.3 0 0 1-1.2 2.333A8.166 8.166 0 0 0 0 37.1a8.167 8.167 0 0 0 1.708 4.3 8.3 8.3 0 0 1 1.2 2.333 8.6 8.6 0 0 1-.065 2.73 7.928 7.928 0 0 0 .317 4.509 8.124 8.124 0 0 0 3.374 3.091 8.454 8.454 0 0 1 2.14 1.613 8.479 8.479 0 0 1 1.11 2.457 8.106 8.106 0 0 0 2.26 3.954 8.107 8.107 0 0 0 4.35 1.313 8.569 8.569 0 0 1 2.661.541 8.408 8.408 0 0 1 2.032 1.71 8.141 8.141 0 0 0 3.792 2.607 7.924 7.924 0 0 0 4.434-.7A8.674 8.674 0 0 1 32 66.883a8.673 8.673 0 0 1 2.686.678 10.313 10.313 0 0 0 3.417.807 4.577 4.577 0 0 0 1.017-.111 8.144 8.144 0 0 0 3.792-2.607 8.4 8.4 0 0 1 2.032-1.71 8.57 8.57 0 0 1 2.661-.541 8.106 8.106 0 0 0 4.347-1.319 8.105 8.105 0 0 0 2.259-3.954 8.473 8.473 0 0 1 1.11-2.457 8.456 8.456 0 0 1 2.14-1.613 8.122 8.122 0 0 0 3.374-3.091 7.928 7.928 0 0 0 .317-4.509 8.592 8.592 0 0 1-.065-2.73 8.3 8.3 0 0 1 1.2-2.333zm-2.1-1.352a10.129 10.129 0 0 0-1.54 3.131 10.464 10.464 0 0 0 .021 3.586 6.175 6.175 0 0 1-.086 3.121 6.231 6.231 0 0 1-2.43 2.047 10.3 10.3 0 0 0-2.786 2.183 10.333 10.333 0 0 0-1.524 3.213 6.219 6.219 0 0 1-1.451 2.805 6.228 6.228 0 0 1-3.049.787 10.427 10.427 0 0 0-3.486.775 10.245 10.245 0 0 0-2.733 2.212 6.235 6.235 0 0 1-2.561 1.92 6.175 6.175 0 0 1-3.036-.61A10.557 10.557 0 0 0 32 64.383a10.554 10.554 0 0 0-3.531.825 6.179 6.179 0 0 1-3.036.61 6.234 6.234 0 0 1-2.562-1.92 10.243 10.243 0 0 0-2.732-2.211 10.423 10.423 0 0 0-3.486-.775 6.224 6.224 0 0 1-3.049-.788 6.216 6.216 0 0 1-1.452-2.805 10.334 10.334 0 0 0-1.524-3.212 10.307 10.307 0 0 0-2.786-2.183 6.228 6.228 0 0 1-2.43-2.047 6.176 6.176 0 0 1-.086-3.121 10.466 10.466 0 0 0 .021-3.586 10.129 10.129 0 0 0-1.536-3.13A6.248 6.248 0 0 1 2.5 37.1a6.25 6.25 0 0 1 1.31-2.945 10.129 10.129 0 0 0 1.54-3.135 10.464 10.464 0 0 0-.021-3.586 6.175 6.175 0 0 1 .086-3.121 6.231 6.231 0 0 1 2.429-2.047 10.3 10.3 0 0 0 2.786-2.183 10.333 10.333 0 0 0 1.524-3.212 6.218 6.218 0 0 1 1.451-2.8 6.226 6.226 0 0 1 3.049-.788 10.427 10.427 0 0 0 3.486-.783 10.247 10.247 0 0 0 2.731-2.211 6.235 6.235 0 0 1 2.561-1.92 6.182 6.182 0 0 1 3.036.61A10.558 10.558 0 0 0 32 9.808a10.554 10.554 0 0 0 3.531-.825 6.178 6.178 0 0 1 3.036-.61 6.235 6.235 0 0 1 2.562 1.92A10.243 10.243 0 0 0 43.86 12.5a10.423 10.423 0 0 0 3.486.775 6.223 6.223 0 0 1 3.049.788 6.216 6.216 0 0 1 1.452 2.805 10.334 10.334 0 0 0 1.524 3.212 10.307 10.307 0 0 0 2.786 2.183 6.228 6.228 0 0 1 2.43 2.047 6.176 6.176 0 0 1 .086 3.121 10.463 10.463 0 0 0-.021 3.586 10.129 10.129 0 0 0 1.54 3.131A6.249 6.249 0 0 1 61.5 37.1a6.25 6.25 0 0 1-1.31 2.945z" class="verifyCertificate-1" transform="translate(0 -5.822)"/>
            <g id="verifiedCertificate" transform="translate(22 16)">
                <path id="Path_7769" d="M7.121 13.6a3.11 3.11 0 0 0 2.415.286.365.365 0 0 1 .445.159 2.366 2.366 0 0 0 2.32 1.176.235.235 0 0 1 .222.318L9.408 22.88a.361.361 0 0 1-.636.032l-1.365-2.349a.326.326 0 0 0-.413-.159l-2.574.953a.34.34 0 0 1-.445-.445l2.67-7.119a.348.348 0 0 1 .476-.193z" class="cls-2" transform="translate(-3.57 7.245)"/>
                <path id="Path_7770" d="M11.078 15.39a2.479 2.479 0 0 0 2.32-1.525.256.256 0 0 1 .286-.1 2.709 2.709 0 0 0 2.606-.127.22.22 0 0 1 .318.1l3.019 7.562c.064.159-.1.35-.254.286l-2.956-.986a.213.213 0 0 0-.254.1l-1.526 2.73a.213.213 0 0 1-.381-.032l-3.369-7.723c-.063-.158.032-.317.191-.285z" class="cls-2" transform="translate(.387 7.27)"/>
                <g id="Group_3459">
                    <path id="Path_7771" d="M13.772 21.267a2.334 2.334 0 0 1-1.97-1.081l-.477-.731a.5.5 0 0 0-.636-.191l-.826.318a2.388 2.388 0 0 1-2.256-.282 2.26 2.26 0 0 1-.953-2.034l.064-.89a.518.518 0 0 0-.381-.54l-.858-.222a2.274 2.274 0 0 1-1.653-1.557 2.352 2.352 0 0 1 .413-2.225l.572-.7a.527.527 0 0 0 0-.667l-.572-.636A2.352 2.352 0 0 1 3.825 7.6a2.394 2.394 0 0 1 1.653-1.556l.858-.222a.489.489 0 0 0 .381-.54l-.064-.89a2.334 2.334 0 0 1 .953-2.034 2.388 2.388 0 0 1 2.256-.286l.826.318a.544.544 0 0 0 .636-.191l.54-.826A2.237 2.237 0 0 1 13.772.324a2.2 2.2 0 0 1 1.907 1.049l.54.858a.5.5 0 0 0 .636.191l.826-.318a2.388 2.388 0 0 1 2.256.286 2.26 2.26 0 0 1 .953 2.034l-.064.89a.518.518 0 0 0 .381.54l.858.222a2.274 2.274 0 0 1 1.655 1.557 2.352 2.352 0 0 1-.413 2.225l-.572.667a.527.527 0 0 0 0 .667l.572.667a2.352 2.352 0 0 1 .413 2.225 2.394 2.394 0 0 1-1.653 1.557l-.858.222a.489.489 0 0 0-.381.54l.064.89a2.334 2.334 0 0 1-.953 2.034 2.387 2.387 0 0 1-2.256.286l-.826-.318a.544.544 0 0 0-.636.191l-.477.731a2.306 2.306 0 0 1-1.972 1.05zM10.88 17.39a2.263 2.263 0 0 1 1.97 1.081l.477.731a.509.509 0 0 0 .445.254.544.544 0 0 0 .445-.254l.477-.731a2.364 2.364 0 0 1 2.86-.922l.826.318a.509.509 0 0 0 .508-.064.583.583 0 0 0 .222-.445l-.064-.89a2.34 2.34 0 0 1 1.754-2.415l.858-.222a.527.527 0 0 0 .381-.35.483.483 0 0 0-.1-.477l-.572-.667a2.309 2.309 0 0 1 0-2.987l.572-.667a.49.49 0 0 0 .1-.477.534.534 0 0 0-.35-.35l-.925-.256a2.331 2.331 0 0 1-1.748-2.415l.064-.89a.46.46 0 0 0-.222-.445.491.491 0 0 0-.508-.064l-.826.318a2.364 2.364 0 0 1-2.86-.922l-.54-.858a.438.438 0 0 0-.763 0l-.54.858a2.364 2.364 0 0 1-2.86.922l-.826-.318a.509.509 0 0 0-.508.064.583.583 0 0 0-.227.45l.064.89A2.34 2.34 0 0 1 6.717 7.6l-.858.222a.527.527 0 0 0-.381.35.483.483 0 0 0 .1.477l.572.667a2.309 2.309 0 0 1 0 2.987l-.572.7a.49.49 0 0 0-.1.477.527.527 0 0 0 .381.35l.858.222A2.391 2.391 0 0 1 8.5 16.468l-.064.89a.46.46 0 0 0 .222.445.491.491 0 0 0 .508.064l.826-.318a2.3 2.3 0 0 1 .888-.159z" class="cls-2" transform="translate(-3.706 -.324)"/>
                </g>
                <g id="Group_3460" transform="translate(5.101 7.429)">
                    <path id="Path_7772" d="M10.519 10.97a1.61 1.61 0 0 1-1.208-.508l-2.1-2.1a.921.921 0 0 1 1.3-1.3l2.034 2.034 3.782-3.782a.921.921 0 1 1 1.3 1.3l-3.877 3.845a1.873 1.873 0 0 1-1.231.511z" class="cls-2" transform="translate(-6.952 -5.051)"/>
                </g>
            </g>
        </g>
    </g>
</svg>
