<svg id="wallet" xmlns="http://www.w3.org/2000/svg" width="16" height="14" viewBox="0 0 16 14">
  <path id="Path_35875" data-name="Path 35875" d="M13.4,7.8h0a.684.684,0,0,1-.7.7h-.6c-.4,0-.6-.3-.6-.7a.645.645,0,0,1,.6-.6h.6A.669.669,0,0,1,13.4,7.8Z" transform="translate(-0.161 0.295)" fill="#121e2a"/>
  <path id="Path_35876" data-name="Path 35876" d="M14.914,5.289V4.148a1.816,1.816,0,0,0-1.778-1.867h-1.58V1.867A1.681,1.681,0,0,0,9.877,0H2.864A2.941,2.941,0,0,0,0,3.007v9.126A1.816,1.816,0,0,0,1.778,14H13.235a1.6,1.6,0,0,0,1.185-.519,1.964,1.964,0,0,0,.494-1.244V11.1A1.778,1.778,0,0,0,16,9.437V6.948A1.778,1.778,0,0,0,14.914,5.289ZM2.864,1.348H9.877a.468.468,0,0,1,.4.519v.519H1.383A1.618,1.618,0,0,1,2.864,1.348ZM13.63,12.133c0,.207-.2.519-.4.519H1.778a.542.542,0,0,1-.494-.519V3.63H13.136a.436.436,0,0,1,.4.415V5.081H11.457A1.816,1.816,0,0,0,9.679,6.948V9.23A1.816,1.816,0,0,0,11.457,11.1h2.074v1.037Zm1.086-2.9a.544.544,0,0,1-.494.519H11.457a.542.542,0,0,1-.494-.519V6.948a.459.459,0,0,1,.494-.415h2.765c.2,0,.494.207.494.415Z" fill="#121e2a"/>
</svg>
